<?xml version="1.0" encoding="iso-8859-1"?>
<!-- Generator: Adobe Illustrator 16.0.0, SVG Export Plug-In . SVG Version: 6.00 Build 0)  -->
<!DOCTYPE svg PUBLIC "-//W3C//DTD SVG 1.1//EN" "http://www.w3.org/Graphics/SVG/1.1/DTD/svg11.dtd">
<svg version="1.1" id="Capa_1" xmlns="http://www.w3.org/2000/svg" xmlns:xlink="http://www.w3.org/1999/xlink" x="0px" y="0px"
	 width="512px" height="512px" viewBox="0 0 512 512" style="enable-background:new 0 0 512 512;" xml:space="preserve">
<g>
	<g id="XMLID_751_">
		<path id="XMLID_752_" style="fill:#303F9E;" d="M-3987.622,539.432c14.056,0,28.113-14.057,28.113-28.112
			c0-14.057,0-56.227,0-56.227s-126.508,0-140.565,0c-14.055,0-28.113,14.057-28.113,28.113s0,84.339,0,84.339
			s0,28.113,28.113,28.113c28.113,0,140.565,0,140.565,0s0-28.113-28.113-28.113c-28.111,0-98.395,0-98.395,0
			s-14.057,0-14.057-14.056v-28.114c0,0,0,14.057,14.057,14.057C-4082.502,539.432-3998.359,539.432-3987.622,539.432z
			 M-4100.074,497.263c0-7.028,7.029-14.057,14.057-14.057c7.029,0,91.367,0,98.395,0c0,0,0,7.028,0,14.057
			c0,7.027-7.028,14.057-14.057,14.057c-7.027,0-98.395,0-98.395,0S-4100.074,504.29-4100.074,497.263z"/>
		<path id="XMLID_326_" style="fill:#303F9E;" d="M-3692.434,511.319c-14.057,0-28.114,14.056-28.114,28.112
			c0,14.058,0,56.227,0,56.227s126.509,0,140.565,0c14.056,0,28.112-14.057,28.112-28.113c0-14.056,0-84.339,0-84.339
			s0-28.113-28.112-28.113s-140.565,0-140.565,0s0,28.113,28.114,28.113c28.112,0,98.395,0,98.395,0s14.057,0,14.057,14.057v28.112
			c0,0,0-14.056-14.057-14.056C-3597.554,511.319-3681.697,511.319-3692.434,511.319z M-3579.982,553.489
			c0,7.027-7.027,14.056-14.057,14.056c-7.028,0-91.367,0-98.395,0c0,0,0-7.028,0-14.056c0-7.028,7.027-14.058,14.056-14.058
			c7.029,0,98.396,0,98.396,0S-3579.982,546.461-3579.982,553.489z"/>
		<path id="XMLID_755_" style="fill:#303F9E;" d="M-3762.717,595.658h28.112V455.093c0,0-7.027,0-14.056,0
			c-7.029,0-14.057,7.028-14.057,14.057S-3762.717,595.658-3762.717,595.658z"/>
		<path id="XMLID_756_" style="fill:#303F9E;" d="M-3945.452,595.658c0,0,0-98.396,0-112.452c0-14.057,14.055-28.113,28.112-28.113
			v28.113c0,0,0-28.113,28.114-28.113c28.112,0,112.451,0,112.451,0s0,98.396,0,112.452c0,14.057-14.055,28.113-28.112,28.113
			V483.206c0,0-91.368,0-98.396,0c-7.029,0-14.057,7.028-14.057,14.057c0,7.027,0,98.396,0,98.396H-3945.452z"/>
		<path id="XMLID_757_" style="fill:#303F9E;" d="M-3509.7,455.093c-14.058,0-28.112,14.057-28.112,28.113s0,112.452,0,112.452
			s126.508,0,140.565,0c14.057,0,28.112-14.057,28.112-28.113c0-14.056,0-112.452,0-112.452S-3495.644,455.093-3509.7,455.093z
			 M-3397.247,553.489c0,7.027-7.029,14.056-14.058,14.056c-7.027,0-98.396,0-98.396,0s0-63.255,0-70.282
			c0-7.028,7.029-14.057,14.057-14.057c7.028,0,98.396,0,98.396,0S-3397.247,546.461-3397.247,553.489z"/>
		<polygon id="XMLID_760_" style="fill:#303F9E;" points="-3355.078,609.715 -3523.758,497.263 -3523.758,469.149 
			-3355.078,581.602 		"/>
		<path id="XMLID_761_" style="fill:#303F9E;" d="M-4142.244,462.121v-7.028h-168.678c0,0,0,7.028,0,14.057
			s7.027,14.057,14.057,14.057c7.027,0,112.453,0,112.453,0s-89.611,59.74-105.425,70.283
			c-15.813,10.541-21.084,14.056-21.084,35.141v7.028h168.678c0,0,0-7.028,0-14.057c0-7.029-7.027-14.057-14.057-14.057
			c-7.028,0-112.452,0-112.452,0s94.882-63.255,105.424-70.282C-4147.515,486.721-4142.244,483.206-4142.244,462.121z"/>
	</g>
	<g id="XMLID_762_">
		<path id="XMLID_763_" style="fill:#4489FE;" d="M-4241.928,634.326h-31.47v49.155h-6.053v-49.155h-31.471v-6.056h68.994V634.326z"
			/>
		<path id="XMLID_765_" style="fill:#4489FE;" d="M-4230.136,650.896v1.992h63.179v6.055h-63.179v2.071
			c0,9.003,7.57,16.412,16.572,16.412h46.607v6.055h-46.607c-12.507,0-22.626-10.277-22.626-22.626v-9.959
			c0-12.508,10.277-22.626,22.626-22.626h46.607v6.056h-46.607c-4.542,0-8.685,1.832-11.711,4.859
			C-4228.304,642.212-4230.136,646.355-4230.136,650.896z"/>
		<path id="XMLID_767_" style="fill:#4489FE;" d="M-4151.582,660.855v-9.959c0-12.429,10.198-22.626,22.706-22.626h46.528v6.056
			h-46.528c-9.161,0-16.57,7.488-16.649,16.57v9.959c0,9.002,7.409,16.571,16.49,16.571h46.688v6.055h-46.528
			c-6.212,0-11.949-2.549-16.013-6.612C-4149.031,672.727-4151.582,667.069-4151.582,660.855z"/>
		<path id="XMLID_769_" style="fill:#4489FE;" d="M-3999.014,628.271v55.211h-6.133v-26.688h-55.53v26.688h-6.055v-55.211h6.055
			v22.466h55.53v-22.466H-3999.014z"/>
		<path id="XMLID_771_" style="fill:#4489FE;" d="M-3932.968,680.055l-38-44.772c-0.958-1.115-2.312-1.594-3.746-1.594
			c-2.469,0-5.019,1.514-5.099,4.303v45.49h-6.056v-46.05l0.081-0.238c0.398-6.054,5.896-9.64,11.233-9.64
			c3.106,0,6.214,1.196,8.287,3.903l38,44.775c0.958,1.114,2.392,1.672,3.746,1.672c2.391,0,4.781-1.593,5.019-4.381v-45.412h6.135
			v45.969c-0.716,5.975-5.815,9.959-11.233,9.959c-1.514,0-3.108-0.318-4.621-1.036
			C-3930.656,682.365-3931.532,681.808-3932.968,680.055z"/>
		<path id="XMLID_773_" style="fill:#4489FE;" d="M-3874.809,683.481c-12.507,0-22.626-10.118-22.626-22.626v-9.959
			c0-12.429,10.119-22.626,22.626-22.626h40.951c12.507,0,22.705,10.197,22.705,22.626v9.959c0,12.508-10.197,22.626-22.705,22.626
			H-3874.809z M-3891.379,660.855c0,9.083,7.489,16.571,16.57,16.571h40.951c9.163,0,16.65-7.488,16.65-16.571v-9.959
			c0-9.082-7.487-16.57-16.65-16.57h-40.951c-9.081,0-16.57,7.488-16.57,16.57V660.855z"/>
		<path id="XMLID_776_" style="fill:#4489FE;" d="M-3791.952,628.271v32.505c0,4.621,1.832,8.765,4.86,11.712
			c3.028,3.027,7.171,4.939,11.713,4.939h46.526v6.055h-46.526c-6.215,0-11.873-2.549-16.014-6.691
			c-4.064-4.063-6.614-9.721-6.614-16.015v-32.505H-3791.952z"/>
		<path id="XMLID_778_" style="fill:#4489FE;" d="M-3700.57,683.481c-12.507,0-22.626-10.118-22.626-22.626v-9.959
			c0-12.429,10.119-22.626,22.626-22.626h40.951c12.508,0,22.706,10.197,22.706,22.626v9.959c0,12.508-10.198,22.626-22.706,22.626
			H-3700.57z M-3717.142,660.855c0,9.083,7.488,16.571,16.571,16.571h40.951c9.161,0,16.649-7.488,16.649-16.571v-9.959
			c0-9.082-7.488-16.57-16.649-16.57h-40.951c-9.083,0-16.571,7.488-16.571,16.57V660.855z"/>
		<path id="XMLID_781_" style="fill:#4489FE;" d="M-3601.142,683.481c-12.35,0-22.626-10.118-22.626-22.626v-9.959
			c0-12.349,10.117-22.626,22.626-22.626h33.461v6.056h-33.461c-9.003,0-16.571,7.408-16.571,16.41v10.119
			c0,9.002,7.41,16.571,16.411,16.571h27.087c9.003,0,16.571-7.409,16.571-16.412v-2.311h-25.175v-6.055h31.229v8.206
			c0,12.349-10.119,22.626-22.626,22.626H-3601.142z"/>
		<path id="XMLID_783_" style="fill:#4489FE;" d="M-3538.442,683.481v-55.211h6.055v55.211H-3538.442z"/>
		<path id="XMLID_785_" style="fill:#4489FE;" d="M-3513.187,650.896v1.992h63.178v6.055h-63.178v2.071
			c0,9.003,7.569,16.412,16.571,16.412h46.606v6.055h-46.606c-12.509,0-22.626-10.277-22.626-22.626v-9.959
			c0-12.508,10.277-22.626,22.626-22.626h46.606v6.056h-46.606c-4.542,0-8.685,1.832-11.711,4.859
			C-3511.354,642.212-3513.187,646.355-3513.187,650.896z"/>
		<path id="XMLID_787_" style="fill:#4489FE;" d="M-3434.632,683.481v-6.055h52.661c5.099,0,9.243-4.143,9.243-9.242
			c0-5.179-4.064-9.321-9.243-9.321h-40.392c-8.365,0-15.297-6.772-15.297-15.296c0-8.604,6.772-15.377,15.297-15.456h52.661v6.056
			h-52.661c-5.259,0-9.003,4.222-9.243,9.24c0.398,5.259,4.223,9.401,9.243,9.401h40.392c8.444,0,15.297,6.852,15.297,15.296
			c0,8.525-6.771,15.377-15.297,15.377H-3434.632z"/>
	</g>
	<path id="XMLID_44_" style="fill:#4489FE;" d="M-3715.146,235.597c-17.318,0-31.356-14.039-31.356-31.356
		c0-17.318,14.038-31.356,31.356-31.356c15.678,0,23.518,15.678,39.195,15.678c7.838,0,106.506,0,106.545,0
		c7.183-24.89,11.043-51.188,11.043-78.392c0-36.061-6.775-70.536-19.104-102.238l-294.462,196.308l199.206,132.805
		c40.336-29.892,72.429-70.274,92.224-117.126c-0.03,0-87.613,0-95.451,0C-3691.629,219.918-3699.469,235.597-3715.146,235.597z"/>
	<path id="XMLID_353_" style="fill:#4489FE;" d="M-4008.422-116.704c-40.336,29.891-72.428,70.274-92.224,117.126h0
		c0,0,87.611,0,95.451,0c15.678,0,23.517-15.678,39.196-15.678c17.317,0,31.357,14.039,31.357,31.356s-14.04,31.357-31.357,31.357
		c-15.679,0-23.518-15.678-39.196-15.678c-7.839,0-106.544,0-106.544,0l0,0c-7.183,24.89-11.043,51.188-11.043,78.391
		c0,36.062,6.775,70.537,19.104,102.239l294.463-196.309L-4008.422-116.704z"/>
	<path id="XMLID_354_" style="fill:#4489FE;" d="M-3592.252-24.02c-47.736-88.149-141.035-148.019-248.321-148.019
		c-49.269,0-95.582,12.638-135.894,34.831h0l229.963,153.309l-342.391,228.26c47.736,88.15,141.035,148.019,248.321,148.019
		c49.269,0,95.582-12.639,135.894-34.831l-229.963-153.309L-3592.252-24.02z"/>
	<path id="XMLID_351_" style="fill:#FFFFFF;" d="M-3976.466-137.208c-11.132,6.127-21.806,12.982-31.957,20.504h0l199.207,132.804
		l-294.463,196.309l0,0c4.278,11,9.217,21.67,14.785,31.952l342.391-228.26L-3976.466-137.208z"/>
	<path id="XMLID_349_" style="fill:#FFFFFF;" d="M-3577.466,7.932c-4.279-11.001-9.219-21.671-14.785-31.952l-0.001,0
		l-342.39,228.26l229.963,153.309l0,0c11.131-6.127,21.805-12.982,31.955-20.504l0,0l-199.206-132.805L-3577.466,7.932
		L-3577.466,7.932z"/>
	<path id="XMLID_344_" style="fill:#FFFFFF;" d="M-3569.406,188.562c-0.039,0-98.707,0-106.545,0
		c-15.678,0-23.518-15.678-39.195-15.678c-17.318,0-31.356,14.039-31.356,31.356c0,17.317,14.038,31.356,31.356,31.356
		c15.678,0,23.518-15.678,39.195-15.678c7.838,0,95.421,0,95.451,0h0.001C-3576.207,209.758-3572.502,199.289-3569.406,188.562
		L-3569.406,188.562z"/>
	<path id="XMLID_350_" style="fill:#FFFFFF;" d="M-3965.999-15.256c-15.679,0-23.518,15.678-39.196,15.678
		c-7.839,0-95.451,0-95.451,0c-4.293,10.161-7.998,20.63-11.094,31.357c0,0,98.705,0,106.544,0
		c15.678,0,23.517,15.678,39.196,15.678c17.317,0,31.357-14.04,31.357-31.357S-3948.682-15.256-3965.999-15.256z"/>
</g>
<g>
	<g id="XMLID_51_">
		<path id="XMLID_65_" style="fill:#FFFFFF;" d="M-4165.81-3445.098c14.056,0,28.113-14.057,28.113-28.113
			c0-14.056,0-56.226,0-56.226s-126.508,0-140.565,0c-14.055,0-28.113,14.056-28.113,28.113c0,14.057,0,84.339,0,84.339
			s0,28.113,28.113,28.113c28.113,0,140.565,0,140.565,0s0-28.113-28.113-28.113c-28.111,0-98.395,0-98.395,0
			s-14.057,0-14.057-14.056v-28.114c0,0,0,14.057,14.057,14.057C-4260.69-3445.098-4176.546-3445.098-4165.81-3445.098z
			 M-4278.262-3487.267c0-7.028,7.029-14.057,14.057-14.057c7.029,0,91.367,0,98.395,0c0,0,0,7.028,0,14.057
			c0,7.027-7.028,14.056-14.057,14.056c-7.027,0-98.395,0-98.395,0S-4278.262-3480.239-4278.262-3487.267z"/>
		<path id="XMLID_59_" style="fill:#FFFFFF;" d="M-3870.621-3473.211c-14.057,0-28.114,14.057-28.114,28.113
			c0,14.058,0,56.227,0,56.227s126.509,0,140.565,0c14.056,0,28.112-14.058,28.112-28.113s0-84.339,0-84.339s0-28.113-28.112-28.113
			s-140.565,0-140.565,0s0,28.113,28.114,28.113c28.112,0,98.395,0,98.395,0s14.057,0,14.057,14.057v28.112
			c0,0,0-14.057-14.057-14.057C-3775.741-3473.211-3859.885-3473.211-3870.621-3473.211z M-3758.17-3431.04
			c0,7.027-7.027,14.056-14.057,14.056c-7.028,0-91.367,0-98.395,0c0,0,0-7.028,0-14.056c0-7.029,7.027-14.058,14.056-14.058
			c7.029,0,98.396,0,98.396,0S-3758.17-3438.069-3758.17-3431.04z"/>
		<path id="XMLID_58_" style="fill:#FFFFFF;" d="M-3940.904-3388.871h28.112v-140.565c0,0-7.027,0-14.056,0
			c-7.029,0-14.057,7.028-14.057,14.056C-3940.904-3508.353-3940.904-3388.871-3940.904-3388.871z"/>
		<path id="XMLID_57_" style="fill:#FFFFFF;" d="M-4123.639-3388.871c0,0,0-98.396,0-112.452c0-14.058,14.055-28.113,28.112-28.113
			v28.113c0,0,0-28.113,28.114-28.113c28.112,0,112.451,0,112.451,0s0,98.396,0,112.452s-14.055,28.113-28.112,28.113v-112.452
			c0,0-91.368,0-98.396,0c-7.029,0-14.057,7.028-14.057,14.057c0,7.027,0,98.396,0,98.396H-4123.639z"/>
		<path id="XMLID_54_" style="fill:#FFFFFF;" d="M-3687.888-3529.437c-14.058,0-28.112,14.056-28.112,28.113
			c0,14.057,0,112.452,0,112.452s126.508,0,140.565,0c14.057,0,28.112-14.058,28.112-28.113s0-112.452,0-112.452
			S-3673.831-3529.437-3687.888-3529.437z M-3575.435-3431.04c0,7.027-7.029,14.056-14.058,14.056c-7.027,0-98.396,0-98.396,0
			s0-63.255,0-70.282c0-7.028,7.029-14.057,14.057-14.057c7.028,0,98.396,0,98.396,0S-3575.435-3438.069-3575.435-3431.04z"/>
		<polygon id="XMLID_53_" style="fill:#FFFFFF;" points="-3533.266,-3374.815 -3701.945,-3487.267 -3701.945,-3515.381 
			-3533.266,-3402.929 		"/>
		<path id="XMLID_52_" style="fill:#FFFFFF;" d="M-4320.431-3522.408v-7.028h-168.678c0,0,0,7.027,0,14.056
			s7.027,14.058,14.057,14.058c7.027,0,112.453,0,112.453,0s-89.611,59.74-105.425,70.283
			c-15.813,10.541-21.084,14.056-21.084,35.141v7.028h168.678c0,0,0-7.028,0-14.058c0-7.028-7.027-14.056-14.057-14.056
			c-7.028,0-112.452,0-112.452,0s94.882-63.255,105.424-70.282C-4325.702-3497.81-4320.431-3501.323-4320.431-3522.408z"/>
	</g>
	<g id="XMLID_8_">
		<path id="XMLID_46_" style="fill:#7CC0DE;" d="M-4420.116-3350.203h-31.47v49.155h-6.053v-49.155h-31.471v-6.056h68.994V-3350.203
			z"/>
		<path id="XMLID_31_" style="fill:#7CC0DE;" d="M-4408.324-3333.633v1.991h63.179v6.055h-63.179v2.072
			c0,9.003,7.57,16.412,16.572,16.412h46.607v6.055h-46.607c-12.507,0-22.626-10.277-22.626-22.626v-9.959
			c0-12.509,10.277-22.626,22.626-22.626h46.607v6.056h-46.607c-4.542,0-8.685,1.832-11.711,4.858
			C-4406.491-3342.317-4408.324-3338.174-4408.324-3333.633z"/>
		<path id="XMLID_29_" style="fill:#7CC0DE;" d="M-4329.769-3323.674v-9.959c0-12.429,10.198-22.626,22.706-22.626h46.528v6.056
			h-46.528c-9.161,0-16.57,7.488-16.649,16.57v9.959c0,9.002,7.409,16.571,16.49,16.571h46.688v6.055h-46.528
			c-6.212,0-11.949-2.55-16.013-6.612C-4327.219-3311.803-4329.769-3317.46-4329.769-3323.674z"/>
		<path id="XMLID_27_" style="fill:#7CC0DE;" d="M-4177.202-3356.259v55.211h-6.133v-26.689h-55.53v26.689h-6.055v-55.211h6.055
			v22.466h55.53v-22.466H-4177.202z"/>
		<path id="XMLID_25_" style="fill:#7CC0DE;" d="M-4111.156-3304.475l-38-44.772c-0.958-1.115-2.312-1.595-3.746-1.595
			c-2.469,0-5.019,1.515-5.099,4.304v45.49h-6.056v-46.05l0.081-0.238c0.398-6.054,5.896-9.64,11.233-9.64
			c3.106,0,6.214,1.195,8.287,3.903l38,44.774c0.958,1.115,2.392,1.673,3.746,1.673c2.391,0,4.781-1.593,5.019-4.381v-45.413h6.135
			v45.97c-0.716,5.975-5.815,9.958-11.233,9.958c-1.514,0-3.108-0.318-4.621-1.035
			C-4108.844-3302.165-4109.72-3302.722-4111.156-3304.475z"/>
		<path id="XMLID_22_" style="fill:#7CC0DE;" d="M-4052.997-3301.048c-12.507,0-22.626-10.118-22.626-22.626v-9.959
			c0-12.429,10.119-22.626,22.626-22.626h40.951c12.507,0,22.705,10.197,22.705,22.626v9.959c0,12.508-10.197,22.626-22.705,22.626
			H-4052.997z M-4069.566-3323.674c0,9.083,7.489,16.571,16.57,16.571h40.951c9.163,0,16.65-7.488,16.65-16.571v-9.959
			c0-9.082-7.487-16.57-16.65-16.57h-40.951c-9.081,0-16.57,7.488-16.57,16.57V-3323.674z"/>
		<path id="XMLID_20_" style="fill:#7CC0DE;" d="M-3970.14-3356.259v32.504c0,4.621,1.832,8.766,4.86,11.713
			c3.028,3.027,7.171,4.939,11.713,4.939h46.526v6.055h-46.526c-6.215,0-11.873-2.55-16.014-6.691
			c-4.064-4.063-6.614-9.721-6.614-16.016v-32.504H-3970.14z"/>
		<path id="XMLID_17_" style="fill:#7CC0DE;" d="M-3878.758-3301.048c-12.507,0-22.626-10.118-22.626-22.626v-9.959
			c0-12.429,10.119-22.626,22.626-22.626h40.951c12.508,0,22.706,10.197,22.706,22.626v9.959c0,12.508-10.198,22.626-22.706,22.626
			H-3878.758z M-3895.329-3323.674c0,9.083,7.488,16.571,16.571,16.571h40.951c9.161,0,16.649-7.488,16.649-16.571v-9.959
			c0-9.082-7.488-16.57-16.649-16.57h-40.951c-9.083,0-16.571,7.488-16.571,16.57V-3323.674z"/>
		<path id="XMLID_15_" style="fill:#7CC0DE;" d="M-3779.329-3301.048c-12.35,0-22.626-10.118-22.626-22.626v-9.959
			c0-12.349,10.117-22.626,22.626-22.626h33.461v6.056h-33.461c-9.003,0-16.571,7.408-16.571,16.41v10.119
			c0,9.002,7.41,16.571,16.411,16.571h27.087c9.003,0,16.571-7.409,16.571-16.412v-2.311h-25.175v-6.055h31.229v8.206
			c0,12.349-10.119,22.626-22.626,22.626H-3779.329z"/>
		<path id="XMLID_13_" style="fill:#7CC0DE;" d="M-3716.63-3301.048v-55.211h6.055v55.211H-3716.63z"/>
		<path id="XMLID_11_" style="fill:#7CC0DE;" d="M-3691.374-3333.633v1.991h63.178v6.055h-63.178v2.072
			c0,9.003,7.569,16.412,16.571,16.412h46.606v6.055h-46.606c-12.509,0-22.626-10.277-22.626-22.626v-9.959
			c0-12.509,10.277-22.626,22.626-22.626h46.606v6.056h-46.606c-4.542,0-8.685,1.832-11.711,4.858
			C-3689.541-3342.317-3691.374-3338.174-3691.374-3333.633z"/>
		<path id="XMLID_9_" style="fill:#7CC0DE;" d="M-3612.819-3301.048v-6.055h52.661c5.099,0,9.243-4.143,9.243-9.242
			c0-5.179-4.064-9.321-9.243-9.321h-40.392c-8.365,0-15.297-6.772-15.297-15.296c0-8.604,6.772-15.377,15.297-15.457h52.661v6.057
			h-52.661c-5.259,0-9.003,4.221-9.243,9.24c0.398,5.259,4.223,9.401,9.243,9.401h40.392c8.444,0,15.297,6.852,15.297,15.296
			c0,8.524-6.771,15.377-15.297,15.377H-3612.819z"/>
	</g>
	<path id="XMLID_7_" style="fill:#7CC0DE;" d="M-3893.334-3748.933c-17.318,0-31.356-14.039-31.356-31.356
		c0-17.318,14.038-31.356,31.356-31.356c15.678,0,23.518,15.678,39.195,15.678c7.838,0,106.506,0,106.545,0
		c7.183-24.89,11.043-51.188,11.043-78.391c0-36.061-6.775-70.536-19.104-102.238l-294.462,196.308l199.206,132.804
		c40.336-29.891,72.429-70.273,92.224-117.126c-0.03,0-87.613,0-95.451,0C-3869.816-3764.611-3877.656-3748.933-3893.334-3748.933z"
		/>
	<path id="XMLID_6_" style="fill:#7CC0DE;" d="M-4186.61-4101.233c-40.336,29.892-72.428,70.274-92.224,117.126h0
		c0,0,87.611,0,95.451,0c15.678,0,23.517-15.678,39.196-15.678c17.317,0,31.357,14.038,31.357,31.356
		c0,17.318-14.04,31.356-31.357,31.356c-15.679,0-23.518-15.679-39.196-15.679c-7.839,0-106.544,0-106.544,0l0,0
		c-7.183,24.891-11.043,51.19-11.043,78.392c0,36.061,6.775,70.537,19.104,102.239l294.463-196.309L-4186.61-4101.233z"/>
	<path id="XMLID_5_" style="fill:#7CC0DE;" d="M-3770.439-4008.549c-47.736-88.15-141.035-148.02-248.321-148.02
		c-49.269,0-95.582,12.639-135.894,34.831h0l229.963,153.309l-342.391,228.26c47.736,88.15,141.035,148.02,248.321,148.02
		c49.269,0,95.582-12.639,135.894-34.831l-229.963-153.309L-3770.439-4008.549z"/>
	<path id="XMLID_4_" style="fill:#FFFFFF;" d="M-4154.654-4121.737c-11.132,6.127-21.806,12.981-31.957,20.504h0l199.207,132.805
		l-294.463,196.309l0,0c4.278,11,9.217,21.67,14.785,31.951l342.391-228.26L-4154.654-4121.737z"/>
	<path id="XMLID_3_" style="fill:#FFFFFF;" d="M-3755.653-3976.597c-4.279-11.001-9.219-21.671-14.785-31.952l-0.001,0.001
		l-342.39,228.26l229.963,153.309l0,0c11.131-6.128,21.805-12.982,31.955-20.505l0,0l-199.206-132.804L-3755.653-3976.597
		L-3755.653-3976.597z"/>
	<path id="XMLID_2_" style="fill:#FFFFFF;" d="M-3747.594-3795.968c-0.039,0-98.707,0-106.545,0
		c-15.678,0-23.518-15.678-39.195-15.678c-17.318,0-31.356,14.038-31.356,31.356c0,17.317,14.038,31.356,31.356,31.356
		c15.678,0,23.518-15.679,39.195-15.679c7.838,0,95.421,0,95.451,0h0.001C-3754.395-3774.771-3750.689-3785.24-3747.594-3795.968
		L-3747.594-3795.968z"/>
	<path id="XMLID_1_" style="fill:#FFFFFF;" d="M-4144.187-3999.785c-15.679,0-23.518,15.678-39.196,15.678
		c-7.839,0-95.451,0-95.451,0c-4.293,10.161-7.998,20.63-11.094,31.356c0,0,98.705,0,106.544,0
		c15.678,0,23.517,15.679,39.196,15.679c17.317,0,31.357-14.039,31.357-31.356
		C-4112.83-3985.747-4126.87-3999.785-4144.187-3999.785z"/>
</g>
<g>
	<g id="XMLID_33_">
		<g id="XMLID_304_">
			<path id="XMLID_333_" style="fill:#303F9E;" d="M-1411.142,271.828c16.138,0,32.276-16.138,32.276-32.276
				c0-16.137,0-64.552,0-64.552s-145.242,0-161.381,0c-16.137,0-32.277,16.138-32.277,32.276s0,96.828,0,96.828
				s0,32.276,32.277,32.276c32.275,0,161.381,0,161.381,0s0-32.276-32.276-32.276c-32.274,0-112.966,0-112.966,0
				s-16.139,0-16.139-16.138V255.69c0,0,0,16.138,16.139,16.138C-1520.072,271.828-1423.469,271.828-1411.142,271.828z
				 M-1540.246,223.415c0-8.069,8.068-16.139,16.139-16.139c8.068,0,104.896,0,112.966,0c0,0,0,8.069,0,16.139
				c0,8.068-8.069,16.137-16.14,16.137c-8.066,0-112.965,0-112.965,0S-1540.246,231.483-1540.246,223.415z"/>
			<path id="XMLID_329_" style="fill:#303F9E;" d="M-1072.24,239.552c-16.139,0-32.277,16.138-32.277,32.276
				c0,16.139,0,64.553,0,64.553s145.241,0,161.381,0c16.137,0,32.275-16.139,32.275-32.276s0-96.828,0-96.828
				s0-32.276-32.275-32.276s-161.381,0-161.381,0s0,32.276,32.277,32.276c32.275,0,112.964,0,112.964,0s16.14,0,16.14,16.139v32.275
				c0,0,0-16.138-16.14-16.138C-963.311,239.552-1059.914,239.552-1072.24,239.552z M-943.137,287.967
				c0,8.068-8.068,16.138-16.14,16.138c-8.067,0-104.896,0-112.964,0c0,0,0-8.069,0-16.138c0-8.069,8.068-16.139,16.137-16.139
				c8.07,0,112.967,0,112.967,0S-943.137,279.897-943.137,287.967z"/>
			<path id="XMLID_323_" style="fill:#303F9E;" d="M-1152.932,336.381h32.274V175c0,0-8.067,0-16.136,0
				c-8.07,0-16.139,8.069-16.139,16.138C-1152.932,199.207-1152.932,336.381-1152.932,336.381z"/>
			<path id="XMLID_321_" style="fill:#303F9E;" d="M-1362.727,336.381c0,0,0-112.967,0-129.104
				c0-16.139,16.137-32.276,32.275-32.276v32.276c0,0,0-32.276,32.277-32.276c32.275,0,129.104,0,129.104,0s0,112.967,0,129.104
				s-16.137,32.276-32.275,32.276V207.276c0,0-104.898,0-112.967,0c-8.07,0-16.139,8.069-16.139,16.139c0,8.068,0,112.966,0,112.966
				H-1362.727z"/>
			<path id="XMLID_318_" style="fill:#303F9E;" d="M-862.447,175c-16.139,0-32.276,16.138-32.276,32.276s0,129.104,0,129.104
				s145.243,0,161.381,0c16.14,0,32.276-16.139,32.276-32.276s0-129.104,0-129.104S-846.309,175-862.447,175z M-733.343,287.967
				c0,8.068-8.069,16.138-16.138,16.138s-112.967,0-112.967,0s0-72.622,0-80.689c0-8.069,8.069-16.139,16.139-16.139
				c8.067,0,112.966,0,112.966,0S-733.343,279.897-733.343,287.967z"/>
			<polygon id="XMLID_317_" style="fill:#303F9E;" points="-684.928,352.519 -878.586,223.415 -878.586,191.138 -684.928,320.242 
							"/>
			<path id="XMLID_312_" style="fill:#303F9E;" d="M-1588.66,183.069V175h-193.658c0,0,0,8.068,0,16.138s8.068,16.139,16.139,16.139
				c8.068,0,129.105,0,129.105,0s-102.88,68.587-121.037,80.69c-18.154,12.103-24.207,16.138-24.207,40.345v8.069h193.658
				c0,0,0-8.069,0-16.139s-8.068-16.138-16.139-16.138c-8.068,0-129.104,0-129.104,0s108.933-72.622,121.036-80.689
				C-1594.713,211.311-1588.66,207.276-1588.66,183.069z"/>
		</g>
		<g id="XMLID_41_">
			<path id="XMLID_302_" style="fill:#4489FE;" d="M-1703.107,380.775h-36.13v56.434h-6.949v-56.434h-36.132v-6.953h79.211V380.775z
				"/>
			<path id="XMLID_296_" style="fill:#4489FE;" d="M-1689.568,399.799v2.287h72.535v6.951h-72.535v2.378
				c0,10.337,8.689,18.843,19.025,18.843h53.51v6.951h-53.51c-14.359,0-25.977-11.799-25.977-25.977v-11.434
				c0-14.36,11.799-25.977,25.977-25.977h53.51v6.953h-53.51c-5.215,0-9.971,2.103-13.445,5.578
				C-1687.465,389.828-1689.568,394.586-1689.568,399.799z"/>
			<path id="XMLID_294_" style="fill:#4489FE;" d="M-1599.381,411.232v-11.434c0-14.27,11.707-25.977,26.068-25.977h53.418v6.953
				h-53.418c-10.518,0-19.024,8.597-19.115,19.023v11.434c0,10.336,8.506,19.025,18.932,19.025h53.602v6.951h-53.418
				c-7.133,0-13.719-2.927-18.385-7.591C-1596.453,424.861-1599.381,418.367-1599.381,411.232z"/>
			<path id="XMLID_266_" style="fill:#4489FE;" d="M-1424.221,373.822v63.387h-7.043v-30.641h-63.752v30.641h-6.953v-63.387h6.953
				v25.793h63.752v-25.793H-1424.221z"/>
			<path id="XMLID_257_" style="fill:#4489FE;" d="M-1348.395,433.275l-43.627-51.403c-1.1-1.28-2.654-1.829-4.301-1.829
				c-2.835,0-5.762,1.738-5.854,4.939v52.227h-6.953v-52.868l0.094-0.273c0.457-6.951,6.769-11.067,12.896-11.067
				c3.566,0,7.135,1.373,9.514,4.481l43.627,51.405c1.1,1.279,2.746,1.92,4.301,1.92c2.744,0,5.488-1.828,5.762-5.029V373.64h7.043
				v52.776c-0.822,6.859-6.676,11.433-12.897,11.433c-1.737,0-3.567-0.364-5.304-1.188
				C-1345.74,435.928-1346.746,435.288-1348.395,433.275z"/>
			<path id="XMLID_121_" style="fill:#4489FE;" d="M-1281.624,437.209c-14.358,0-25.976-11.616-25.976-25.977v-11.434
				c0-14.27,11.617-25.977,25.976-25.977h47.017c14.359,0,26.066,11.707,26.066,25.977v11.434c0,14.36-11.707,25.977-26.066,25.977
				H-1281.624z M-1300.646,411.232c0,10.428,8.598,19.025,19.022,19.025h47.017c10.52,0,19.115-8.598,19.115-19.025v-11.434
				c0-10.427-8.596-19.023-19.115-19.023h-47.017c-10.425,0-19.022,8.597-19.022,19.023V411.232z"/>
			<path id="XMLID_116_" style="fill:#4489FE;" d="M-1186.496,373.822v37.318c0,5.305,2.104,10.063,5.58,13.446
				c3.476,3.477,8.232,5.671,13.447,5.671h53.416v6.951h-53.416c-7.135,0-13.631-2.927-18.385-7.682
				c-4.666-4.666-7.594-11.16-7.594-18.387v-37.318H-1186.496z"/>
			<path id="XMLID_102_" style="fill:#4489FE;" d="M-1081.582,437.209c-14.359,0-25.977-11.616-25.977-25.977v-11.434
				c0-14.27,11.617-25.977,25.977-25.977h47.016c14.359,0,26.068,11.707,26.068,25.977v11.434c0,14.36-11.709,25.977-26.068,25.977
				H-1081.582z M-1100.607,411.232c0,10.428,8.598,19.025,19.025,19.025h47.016c10.518,0,19.115-8.598,19.115-19.025v-11.434
				c0-10.427-8.598-19.023-19.115-19.023h-47.016c-10.428,0-19.025,8.597-19.025,19.023V411.232z"/>
			<path id="XMLID_63_" style="fill:#4489FE;" d="M-967.43,437.209c-14.179,0-25.978-11.616-25.978-25.977v-11.434
				c0-14.177,11.616-25.977,25.978-25.977h38.416v6.953h-38.416c-10.336,0-19.025,8.506-19.025,18.84v11.617
				c0,10.336,8.508,19.025,18.842,19.025h31.098c10.336,0,19.025-8.506,19.025-18.843v-2.651h-28.902v-6.951h35.853v9.42
				c0,14.178-11.617,25.977-25.976,25.977H-967.43z"/>
			<path id="XMLID_49_" style="fill:#4489FE;" d="M-895.445,437.209v-63.387h6.951v63.387H-895.445z"/>
			<path id="XMLID_47_" style="fill:#4489FE;" d="M-866.449,399.799v2.287h72.533v6.951h-72.533v2.378
				c0,10.337,8.689,18.843,19.025,18.843h53.508v6.951h-53.508c-14.361,0-25.977-11.799-25.977-25.977v-11.434
				c0-14.36,11.799-25.977,25.977-25.977h53.508v6.953h-53.508c-5.216,0-9.971,2.103-13.445,5.578
				C-864.346,389.828-866.449,394.586-866.449,399.799z"/>
			<path id="XMLID_42_" style="fill:#4489FE;" d="M-776.262,437.209v-6.951h60.459c5.854,0,10.61-4.756,10.61-10.61
				c0-5.946-4.665-10.702-10.61-10.702h-46.373c-9.604,0-17.563-7.774-17.563-17.561c0-9.879,7.775-17.653,17.563-17.745h60.459
				v6.952h-60.459c-6.037,0-10.336,4.847-10.611,10.609c0.457,6.037,4.847,10.793,10.611,10.793h46.373
				c9.694,0,17.562,7.866,17.562,17.562c0,9.787-7.772,17.653-17.562,17.653H-776.262z"/>
		</g>
	</g>
	<g id="XMLID_32_">
		<path id="XMLID_40_" style="fill:#4489FE;" d="M-2022.224,400c-19.884,0-36-16.118-36-36c0-19.883,16.116-36,36-36
			c17.999,0,26.999,18,44.999,18c8.998,0,122.277,0,122.322,0c8.246-28.576,12.678-58.769,12.678-90
			c0-41.401-7.778-80.981-21.932-117.378L-2202.224,364l228.704,152.471c46.31-34.318,83.154-80.681,105.881-134.471
			c-0.035,0-100.588,0-109.586,0C-1995.225,382-2004.225,400-2022.224,400z"/>
		<path id="XMLID_39_" style="fill:#4489FE;" d="M-2358.93-4.471c-46.31,34.317-83.154,80.681-105.881,134.471l0,0
			c0,0,100.586,0,109.586,0c18,0,27-18,45.001-18c19.88,0,36,16.118,36,36c0,19.882-16.12,36-36,36c-18.001,0-27.001-18-45.001-18
			c-9,0-122.322,0-122.322,0l0,0c-8.246,28.576-12.678,58.769-12.678,90c0,41.401,7.779,80.981,21.933,117.378L-2130.224,148
			L-2358.93-4.471z"/>
		<path id="XMLID_38_" style="fill:#4489FE;" d="M-1881.131,101.938C-1935.936,0.735-2043.051-68-2166.225-68
			c-56.564,0-109.735,14.51-156.018,39.988l0,0L-2058.224,148l-393.095,262.063C-2396.513,511.265-2289.397,580-2166.225,580
			c56.565,0,109.736-14.51,156.018-39.988L-2274.224,364L-1881.131,101.938z"/>
		<path id="XMLID_37_" style="fill:#FFFFFF;" d="M-2322.242-28.012c-12.78,7.035-25.035,14.905-36.688,23.541l0,0L-2130.224,148
			l-338.068,225.378h-0.001c4.912,12.63,10.582,24.88,16.975,36.685L-2058.224,148L-2322.242-28.012z"/>
		<path id="XMLID_36_" style="fill:#FFFFFF;" d="M-1864.156,138.622c-4.912-12.63-10.584-24.88-16.975-36.684v0L-2274.224,364
			l264.017,176.012l0,0c12.779-7.035,25.033-14.905,36.688-23.541h-0.001L-2202.224,364L-1864.156,138.622L-1864.156,138.622z"/>
		<path id="XMLID_35_" style="fill:#FFFFFF;" d="M-1854.902,346c-0.045,0-113.324,0-122.322,0c-18,0-27-18-44.999-18
			c-19.884,0-36,16.117-36,36c0,19.882,16.116,36,36,36c17.999,0,26.999-18,44.999-18c8.998,0,109.551,0,109.586,0l0,0
			C-1862.711,370.334-1858.457,358.315-1854.902,346L-1854.902,346z"/>
		<path id="XMLID_34_" style="fill:#FFFFFF;" d="M-2310.224,112c-18.001,0-27.001,18-45.001,18c-9,0-109.586,0-109.586,0
			c-4.929,11.666-9.182,23.685-12.736,36c0,0,113.322,0,122.322,0c18,0,27,18,45.001,18c19.88,0,36-16.118,36-36
			C-2274.224,128.118-2290.344,112-2310.224,112z"/>
	</g>
</g>
<g>
	<g id="XMLID_76_">
		<g id="XMLID_105_">
			<path id="XMLID_120_" style="fill:#FFFFFF;" d="M-1589.329-3764.461c16.138,0,32.276-16.139,32.276-32.276
				c0-16.137,0-64.552,0-64.552s-145.242,0-161.381,0c-16.137,0-32.277,16.138-32.277,32.276c0,16.139,0,96.828,0,96.828
				s0,32.276,32.277,32.276c32.275,0,161.381,0,161.381,0s0-32.276-32.276-32.276c-32.274,0-112.966,0-112.966,0
				s-16.139,0-16.139-16.138v-32.277c0,0,0,16.139,16.139,16.139C-1698.26-3764.461-1601.656-3764.461-1589.329-3764.461z
				 M-1718.434-3812.874c0-8.069,8.068-16.139,16.139-16.139c8.068,0,104.896,0,112.966,0c0,0,0,8.069,0,16.139
				c0,8.067-8.069,16.137-16.14,16.137c-8.066,0-112.965,0-112.965,0S-1718.434-3804.807-1718.434-3812.874z"/>
			<path id="XMLID_115_" style="fill:#FFFFFF;" d="M-1250.428-3796.737c-16.139,0-32.277,16.138-32.277,32.276s0,64.553,0,64.553
				s145.241,0,161.381,0c16.137,0,32.275-16.139,32.275-32.276s0-96.828,0-96.828s0-32.276-32.275-32.276s-161.381,0-161.381,0
				s0,32.276,32.277,32.276c32.275,0,112.964,0,112.964,0s16.14,0,16.14,16.139v32.274c0,0,0-16.138-16.14-16.138
				C-1141.498-3796.737-1238.102-3796.737-1250.428-3796.737z M-1121.324-3748.322c0,8.068-8.068,16.138-16.14,16.138
				c-8.067,0-104.896,0-112.964,0c0,0,0-8.069,0-16.138c0-8.069,8.068-16.139,16.137-16.139c8.07,0,112.967,0,112.967,0
				S-1121.324-3756.392-1121.324-3748.322z"/>
			<path id="XMLID_113_" style="fill:#FFFFFF;" d="M-1331.119-3699.908h32.274v-161.381c0,0-8.067,0-16.136,0
				c-8.07,0-16.139,8.07-16.139,16.138C-1331.119-3837.082-1331.119-3699.908-1331.119-3699.908z"/>
			<path id="XMLID_111_" style="fill:#FFFFFF;" d="M-1540.914-3699.908c0,0,0-112.968,0-129.104
				c0-16.138,16.137-32.276,32.275-32.276v32.276c0,0,0-32.276,32.277-32.276c32.275,0,129.104,0,129.104,0s0,112.967,0,129.104
				s-16.137,32.276-32.275,32.276v-129.104c0,0-104.898,0-112.967,0c-8.07,0-16.139,8.069-16.139,16.139
				c0,8.067,0,112.966,0,112.966H-1540.914z"/>
			<path id="XMLID_108_" style="fill:#FFFFFF;" d="M-1040.635-3861.289c-16.139,0-32.276,16.138-32.276,32.276
				c0,16.139,0,129.104,0,129.104s145.243,0,161.381,0c16.14,0,32.276-16.139,32.276-32.276s0-129.104,0-129.104
				S-1024.496-3861.289-1040.635-3861.289z M-911.53-3748.322c0,8.068-8.069,16.138-16.138,16.138s-112.967,0-112.967,0
				s0-72.622,0-80.689c0-8.069,8.069-16.139,16.139-16.139c8.067,0,112.966,0,112.966,0S-911.53-3756.392-911.53-3748.322z"/>
			<polygon id="XMLID_107_" style="fill:#FFFFFF;" points="-863.115,-3683.771 -1056.773,-3812.874 -1056.773,-3845.151 
				-863.115,-3716.047 			"/>
			<path id="XMLID_106_" style="fill:#FFFFFF;" d="M-1766.848-3853.219v-8.07h-193.658c0,0,0,8.068,0,16.138
				c0,8.069,8.068,16.138,16.139,16.138c8.068,0,129.105,0,129.105,0s-102.88,68.587-121.037,80.69
				c-18.154,12.103-24.207,16.138-24.207,40.345v8.069h193.658c0,0,0-8.069,0-16.139s-8.068-16.138-16.139-16.138
				c-8.068,0-129.104,0-129.104,0s108.933-72.622,121.036-80.689C-1772.9-3824.979-1766.848-3829.013-1766.848-3853.219z"/>
		</g>
		<g id="XMLID_77_">
			<path id="XMLID_103_" style="fill:#7CC0DE;" d="M-1881.295-3655.515h-36.13v56.435h-6.949v-56.435h-36.132v-6.952h79.211
				V-3655.515z"/>
			<path id="XMLID_100_" style="fill:#7CC0DE;" d="M-1867.756-3636.49v2.287h72.535v6.951h-72.535v2.378
				c0,10.337,8.689,18.843,19.025,18.843h53.51v6.951h-53.51c-14.359,0-25.977-11.799-25.977-25.977v-11.434
				c0-14.36,11.799-25.977,25.977-25.977h53.51v6.952h-53.51c-5.215,0-9.971,2.104-13.445,5.579
				C-1865.652-3646.461-1867.756-3641.703-1867.756-3636.49z"/>
			<path id="XMLID_98_" style="fill:#7CC0DE;" d="M-1777.568-3625.057v-11.434c0-14.27,11.707-25.977,26.068-25.977h53.418v6.952
				h-53.418c-10.518,0-19.024,8.598-19.115,19.024v11.434c0,10.335,8.506,19.025,18.932,19.025h53.602v6.951h-53.418
				c-7.133,0-13.719-2.927-18.385-7.591C-1774.641-3611.428-1777.568-3617.923-1777.568-3625.057z"/>
			<path id="XMLID_96_" style="fill:#7CC0DE;" d="M-1602.408-3662.467v63.387h-7.043v-30.641h-63.752v30.641h-6.953v-63.387h6.953
				v25.793h63.752v-25.793H-1602.408z"/>
			<path id="XMLID_94_" style="fill:#7CC0DE;" d="M-1526.582-3603.014l-43.627-51.403c-1.1-1.28-2.654-1.83-4.301-1.83
				c-2.835,0-5.762,1.739-5.854,4.94v52.227h-6.953v-52.868l0.094-0.273c0.457-6.951,6.769-11.067,12.896-11.067
				c3.566,0,7.135,1.372,9.514,4.48l43.627,51.406c1.1,1.279,2.746,1.92,4.301,1.92c2.744,0,5.488-1.829,5.762-5.03v-52.137h7.043
				v52.776c-0.822,6.859-6.676,11.433-12.897,11.433c-1.737,0-3.567-0.365-5.304-1.188
				C-1523.928-3600.361-1524.934-3601.001-1526.582-3603.014z"/>
			<path id="XMLID_91_" style="fill:#7CC0DE;" d="M-1459.812-3599.08c-14.358,0-25.976-11.616-25.976-25.977v-11.434
				c0-14.27,11.617-25.977,25.976-25.977h47.017c14.359,0,26.066,11.707,26.066,25.977v11.434c0,14.36-11.707,25.977-26.066,25.977
				H-1459.812z M-1478.834-3625.057c0,10.428,8.598,19.025,19.022,19.025h47.017c10.52,0,19.115-8.598,19.115-19.025v-11.434
				c0-10.427-8.596-19.024-19.115-19.024h-47.017c-10.425,0-19.022,8.598-19.022,19.024V-3625.057z"/>
			<path id="XMLID_89_" style="fill:#7CC0DE;" d="M-1364.684-3662.467v37.318c0,5.305,2.104,10.063,5.58,13.446
				c3.476,3.476,8.232,5.671,13.447,5.671h53.416v6.951h-53.416c-7.135,0-13.631-2.927-18.385-7.683
				c-4.666-4.665-7.594-11.16-7.594-18.386v-37.318H-1364.684z"/>
			<path id="XMLID_86_" style="fill:#7CC0DE;" d="M-1259.77-3599.08c-14.359,0-25.977-11.616-25.977-25.977v-11.434
				c0-14.27,11.617-25.977,25.977-25.977h47.016c14.359,0,26.068,11.707,26.068,25.977v11.434c0,14.36-11.709,25.977-26.068,25.977
				H-1259.77z M-1278.795-3625.057c0,10.428,8.598,19.025,19.025,19.025h47.016c10.518,0,19.115-8.598,19.115-19.025v-11.434
				c0-10.427-8.598-19.024-19.115-19.024h-47.016c-10.428,0-19.025,8.598-19.025,19.024V-3625.057z"/>
			<path id="XMLID_84_" style="fill:#7CC0DE;" d="M-1145.617-3599.08c-14.179,0-25.978-11.616-25.978-25.977v-11.434
				c0-14.177,11.616-25.977,25.978-25.977h38.416v6.952h-38.416c-10.336,0-19.025,8.506-19.025,18.841v11.617
				c0,10.335,8.508,19.025,18.842,19.025h31.098c10.336,0,19.025-8.506,19.025-18.843v-2.652h-28.902v-6.951h35.853v9.421
				c0,14.178-11.617,25.977-25.976,25.977H-1145.617z"/>
			<path id="XMLID_82_" style="fill:#7CC0DE;" d="M-1073.633-3599.08v-63.387h6.951v63.387H-1073.633z"/>
			<path id="XMLID_80_" style="fill:#7CC0DE;" d="M-1044.637-3636.49v2.287h72.533v6.951h-72.533v2.378
				c0,10.337,8.689,18.843,19.025,18.843h53.508v6.951h-53.508c-14.361,0-25.977-11.799-25.977-25.977v-11.434
				c0-14.36,11.799-25.977,25.977-25.977h53.508v6.952h-53.508c-5.216,0-9.971,2.104-13.445,5.579
				C-1042.533-3646.461-1044.637-3641.703-1044.637-3636.49z"/>
			<path id="XMLID_78_" style="fill:#7CC0DE;" d="M-954.449-3599.08v-6.951h60.459c5.854,0,10.61-4.756,10.61-10.611
				c0-5.945-4.665-10.701-10.61-10.701h-46.373c-9.604,0-17.563-7.774-17.563-17.561c0-9.879,7.775-17.654,17.563-17.745h60.459
				v6.952h-60.459c-6.037,0-10.336,4.847-10.611,10.609c0.457,6.037,4.847,10.793,10.611,10.793h46.373
				c9.694,0,17.562,7.866,17.562,17.562c0,9.787-7.772,17.653-17.562,17.653H-954.449z"/>
		</g>
	</g>
	<g id="XMLID_68_">
		<path id="XMLID_75_" style="fill:#7CC0DE;" d="M-2200.411-3636.289c-19.884,0-36-16.118-36-36c0-19.883,16.116-36,36-36
			c17.999,0,26.999,18,44.999,18c8.998,0,122.277,0,122.322,0c8.246-28.576,12.678-58.769,12.678-90
			c0-41.401-7.778-80.981-21.932-117.378l-338.067,225.378l228.704,152.471c46.31-34.318,83.154-80.681,105.881-134.471
			c-0.035,0-100.588,0-109.586,0C-2173.412-3654.289-2182.412-3636.289-2200.411-3636.289z"/>
		<path id="XMLID_74_" style="fill:#7CC0DE;" d="M-2537.117-4040.76c-46.31,34.318-83.154,80.681-105.881,134.471l0,0
			c0,0,100.586,0,109.586,0c18,0,27-18,45.001-18c19.88,0,36,16.117,36,36c0,19.882-16.12,36-36,36c-18.001,0-27.001-18-45.001-18
			c-9,0-122.322,0-122.322,0l0,0c-8.246,28.575-12.678,58.769-12.678,90c0,41.401,7.779,80.981,21.933,117.378l338.068-225.378
			L-2537.117-4040.76z"/>
		<path id="XMLID_73_" style="fill:#7CC0DE;" d="M-2059.318-3934.35c-54.805-101.203-161.92-169.939-285.094-169.939
			c-56.564,0-109.735,14.51-156.018,39.988l0,0l264.019,176.012l-393.095,262.062c54.806,101.203,161.921,169.938,285.094,169.938
			c56.565,0,109.736-14.51,156.018-39.988l-264.017-176.012L-2059.318-3934.35z"/>
		<path id="XMLID_72_" style="fill:#FFFFFF;" d="M-2500.43-4064.301c-12.78,7.035-25.035,14.905-36.688,23.541l0,0l228.706,152.471
			l-338.068,225.378h-0.001c4.912,12.63,10.582,24.88,16.975,36.684l393.095-262.062L-2500.43-4064.301z"/>
		<path id="XMLID_71_" style="fill:#FFFFFF;" d="M-2042.344-3897.668c-4.912-12.63-10.584-24.88-16.975-36.683v0.001
			l-393.093,262.061l264.017,176.012l0,0c12.779-7.035,25.033-14.905,36.688-23.541h-0.001l-228.704-152.471L-2042.344-3897.668
			L-2042.344-3897.668z"/>
		<path id="XMLID_70_" style="fill:#FFFFFF;" d="M-2033.09-3690.289c-0.045,0-113.324,0-122.322,0c-18,0-27-18-44.999-18
			c-19.884,0-36,16.117-36,36c0,19.882,16.116,36,36,36c17.999,0,26.999-18,44.999-18c8.998,0,109.551,0,109.586,0l0,0
			C-2040.898-3665.955-2036.645-3677.974-2033.09-3690.289L-2033.09-3690.289z"/>
		<path id="XMLID_69_" style="fill:#FFFFFF;" d="M-2488.411-3924.289c-18.001,0-27.001,18-45.001,18c-9,0-109.586,0-109.586,0
			c-4.929,11.665-9.182,23.685-12.736,36c0,0,113.322,0,122.322,0c18,0,27,18,45.001,18c19.88,0,36-16.118,36-36
			C-2452.411-3908.172-2468.531-3924.289-2488.411-3924.289z"/>
	</g>
</g>
<g>
	<g id="XMLID_133_">
		<g id="XMLID_161_">
			<path id="XMLID_172_" style="fill:#FFFFFF;" d="M-1458.68,1465.5c16.138,0,32.276-16.139,32.276-32.276
				c0-16.137,0-64.552,0-64.552s-145.242,0-161.381,0c-16.137,0-32.277,16.138-32.277,32.276s0,96.828,0,96.828
				s0,32.276,32.277,32.276c32.275,0,161.381,0,161.381,0s0-32.276-32.276-32.276c-32.274,0-112.966,0-112.966,0
				s-16.139,0-16.139-16.138v-32.277c0,0,0,16.139,16.139,16.139C-1567.61,1465.5-1471.007,1465.5-1458.68,1465.5z
				 M-1587.784,1417.087c0-8.069,8.068-16.139,16.139-16.139c8.068,0,104.896,0,112.966,0c0,0,0,8.069,0,16.139
				c0,8.067-8.069,16.137-16.14,16.137c-8.066,0-112.965,0-112.965,0S-1587.784,1425.154-1587.784,1417.087z"/>
			<path id="XMLID_169_" style="fill:#FFFFFF;" d="M-1119.778,1433.224c-16.139,0-32.277,16.138-32.277,32.276s0,64.553,0,64.553
				s145.241,0,161.381,0c16.137,0,32.275-16.139,32.275-32.276s0-96.828,0-96.828s0-32.276-32.275-32.276s-161.381,0-161.381,0
				s0,32.276,32.277,32.276c32.275,0,112.964,0,112.964,0s16.14,0,16.14,16.139v32.274c0,0,0-16.138-16.14-16.138
				C-1010.849,1433.224-1107.452,1433.224-1119.778,1433.224z M-990.675,1481.639c0,8.068-8.068,16.138-16.14,16.138
				c-8.067,0-104.896,0-112.964,0c0,0,0-8.069,0-16.138c0-8.069,8.068-16.139,16.137-16.139c8.07,0,112.967,0,112.967,0
				S-990.675,1473.569-990.675,1481.639z"/>
			<path id="XMLID_168_" style="fill:#FFFFFF;" d="M-1200.47,1530.053h32.274v-161.381c0,0-8.067,0-16.136,0
				c-8.07,0-16.139,8.069-16.139,16.138C-1200.47,1392.879-1200.47,1530.053-1200.47,1530.053z"/>
			<path id="XMLID_167_" style="fill:#FFFFFF;" d="M-1410.265,1530.053c0,0,0-112.968,0-129.104
				c0-16.139,16.137-32.276,32.275-32.276v32.276c0,0,0-32.276,32.277-32.276c32.275,0,129.104,0,129.104,0s0,112.967,0,129.104
				s-16.137,32.276-32.275,32.276v-129.104c0,0-104.898,0-112.967,0c-8.07,0-16.139,8.069-16.139,16.139
				c0,8.067,0,112.966,0,112.966H-1410.265z"/>
			<path id="XMLID_164_" style="fill:#FFFFFF;" d="M-909.985,1368.672c-16.139,0-32.276,16.138-32.276,32.276s0,129.104,0,129.104
				s145.243,0,161.381,0c16.14,0,32.276-16.139,32.276-32.276s0-129.104,0-129.104S-893.847,1368.672-909.985,1368.672z
				 M-780.881,1481.639c0,8.068-8.069,16.138-16.138,16.138s-112.967,0-112.967,0s0-72.622,0-80.689
				c0-8.069,8.069-16.139,16.139-16.139c8.067,0,112.966,0,112.966,0S-780.881,1473.569-780.881,1481.639z"/>
			<polygon id="XMLID_163_" style="fill:#FFFFFF;" points="-732.466,1546.19 -926.124,1417.087 -926.124,1384.81 -732.466,1513.914 
							"/>
			<path id="XMLID_162_" style="fill:#FFFFFF;" d="M-1636.198,1376.741v-8.069h-193.658c0,0,0,8.068,0,16.138
				s8.068,16.139,16.139,16.139c8.068,0,129.105,0,129.105,0s-102.88,68.587-121.037,80.69
				c-18.154,12.103-24.207,16.138-24.207,40.345v8.069h193.658c0,0,0-8.069,0-16.139s-8.068-16.138-16.139-16.138
				c-8.068,0-129.104,0-129.104,0s108.933-72.622,121.036-80.689C-1642.251,1404.982-1636.198,1400.948-1636.198,1376.741z"/>
		</g>
		<g id="XMLID_134_">
			<path id="XMLID_159_" style="fill:#4489FE;" d="M-1750.646,1574.446h-36.13v56.435h-6.949v-56.435h-36.132v-6.952h79.211
				V1574.446z"/>
			<path id="XMLID_157_" style="fill:#4489FE;" d="M-1737.106,1593.471v2.287h72.535v6.951h-72.535v2.378
				c0,10.337,8.689,18.843,19.025,18.843h53.51v6.951h-53.51c-14.359,0-25.977-11.799-25.977-25.977v-11.434
				c0-14.36,11.799-25.977,25.977-25.977h53.51v6.952h-53.51c-5.215,0-9.971,2.104-13.445,5.579
				C-1735.003,1583.5-1737.106,1588.258-1737.106,1593.471z"/>
			<path id="XMLID_155_" style="fill:#4489FE;" d="M-1646.919,1604.904v-11.434c0-14.27,11.707-25.977,26.068-25.977h53.418v6.952
				h-53.418c-10.518,0-19.024,8.598-19.115,19.024v11.434c0,10.335,8.506,19.025,18.932,19.025h53.602v6.951h-53.418
				c-7.133,0-13.719-2.927-18.385-7.591C-1643.991,1618.533-1646.919,1612.038-1646.919,1604.904z"/>
			<path id="XMLID_153_" style="fill:#4489FE;" d="M-1471.759,1567.494v63.387h-7.043v-30.641h-63.752v30.641h-6.953v-63.387h6.953
				v25.793h63.752v-25.793H-1471.759z"/>
			<path id="XMLID_151_" style="fill:#4489FE;" d="M-1395.933,1626.947l-43.627-51.403c-1.1-1.28-2.654-1.83-4.301-1.83
				c-2.835,0-5.762,1.739-5.854,4.94v52.227h-6.953v-52.868l0.094-0.273c0.457-6.951,6.769-11.067,12.896-11.067
				c3.566,0,7.135,1.372,9.514,4.48l43.627,51.406c1.1,1.279,2.746,1.92,4.301,1.92c2.744,0,5.488-1.829,5.762-5.03v-52.137h7.043
				v52.776c-0.822,6.859-6.676,11.433-12.897,11.433c-1.737,0-3.567-0.365-5.304-1.188
				C-1393.278,1629.6-1394.284,1628.96-1395.933,1626.947z"/>
			<path id="XMLID_148_" style="fill:#4489FE;" d="M-1329.162,1630.881c-14.358,0-25.976-11.616-25.976-25.977v-11.434
				c0-14.27,11.617-25.977,25.976-25.977h47.017c14.359,0,26.066,11.707,26.066,25.977v11.434c0,14.36-11.707,25.977-26.066,25.977
				H-1329.162z M-1348.185,1604.904c0,10.428,8.598,19.025,19.022,19.025h47.017c10.52,0,19.115-8.598,19.115-19.025v-11.434
				c0-10.427-8.596-19.024-19.115-19.024h-47.017c-10.425,0-19.022,8.598-19.022,19.024V1604.904z"/>
			<path id="XMLID_146_" style="fill:#4489FE;" d="M-1234.034,1567.494v37.318c0,5.305,2.104,10.063,5.58,13.446
				c3.476,3.476,8.232,5.671,13.447,5.671h53.416v6.951h-53.416c-7.135,0-13.631-2.927-18.385-7.683
				c-4.666-4.665-7.594-11.16-7.594-18.386v-37.318H-1234.034z"/>
			<path id="XMLID_143_" style="fill:#4489FE;" d="M-1129.12,1630.881c-14.359,0-25.977-11.616-25.977-25.977v-11.434
				c0-14.27,11.617-25.977,25.977-25.977h47.016c14.359,0,26.068,11.707,26.068,25.977v11.434c0,14.36-11.709,25.977-26.068,25.977
				H-1129.12z M-1148.146,1604.904c0,10.428,8.598,19.025,19.025,19.025h47.016c10.518,0,19.115-8.598,19.115-19.025v-11.434
				c0-10.427-8.598-19.024-19.115-19.024h-47.016c-10.428,0-19.025,8.598-19.025,19.024V1604.904z"/>
			<path id="XMLID_141_" style="fill:#4489FE;" d="M-1014.968,1630.881c-14.179,0-25.978-11.616-25.978-25.977v-11.434
				c0-14.177,11.616-25.977,25.978-25.977h38.416v6.952h-38.416c-10.336,0-19.025,8.506-19.025,18.841v11.617
				c0,10.335,8.508,19.025,18.842,19.025h31.098c10.336,0,19.025-8.506,19.025-18.843v-2.652h-28.902v-6.951h35.853v9.421
				c0,14.178-11.617,25.977-25.976,25.977H-1014.968z"/>
			<path id="XMLID_139_" style="fill:#4489FE;" d="M-942.983,1630.881v-63.387h6.951v63.387H-942.983z"/>
			<path id="XMLID_137_" style="fill:#4489FE;" d="M-913.987,1593.471v2.287h72.533v6.951h-72.533v2.378
				c0,10.337,8.689,18.843,19.025,18.843h53.508v6.951h-53.508c-14.361,0-25.977-11.799-25.977-25.977v-11.434
				c0-14.36,11.799-25.977,25.977-25.977h53.508v6.952h-53.508c-5.216,0-9.971,2.104-13.445,5.579
				C-911.884,1583.5-913.987,1588.258-913.987,1593.471z"/>
			<path id="XMLID_135_" style="fill:#4489FE;" d="M-823.8,1630.881v-6.951h60.459c5.854,0,10.61-4.756,10.61-10.611
				c0-5.945-4.665-10.701-10.61-10.701h-46.373c-9.604,0-17.563-7.774-17.563-17.561c0-9.879,7.775-17.654,17.563-17.745h60.459
				v6.952h-60.459c-6.037,0-10.336,4.847-10.611,10.609c0.457,6.037,4.847,10.793,10.611,10.793h46.373
				c9.694,0,17.562,7.866,17.562,17.562c0,9.787-7.772,17.653-17.562,17.653H-823.8z"/>
		</g>
	</g>
	<g id="XMLID_125_">
		<path id="XMLID_132_" style="fill:#4489FE;" d="M-2069.762,1593.672c-19.884,0-36-16.118-36-36c0-19.883,16.116-36,36-36
			c17.999,0,26.999,18,44.999,18c8.998,0,122.277,0,122.322,0c8.246-28.576,12.678-58.769,12.678-90
			c0-41.401-7.778-80.981-21.932-117.378l-338.067,225.378l228.704,152.471c46.31-34.318,83.154-80.681,105.881-134.471
			c-0.035,0-100.588,0-109.586,0C-2042.763,1575.672-2051.763,1593.672-2069.762,1593.672z"/>
		<path id="XMLID_131_" style="fill:#4489FE;" d="M-2406.468,1189.201c-46.31,34.317-83.154,80.681-105.881,134.471l0,0
			c0,0,100.586,0,109.586,0c18,0,27-18,45.001-18c19.88,0,36,16.117,36,36c0,19.882-16.12,36-36,36c-18.001,0-27.001-18-45.001-18
			c-9,0-122.322,0-122.322,0l0,0c-8.246,28.575-12.678,58.769-12.678,90c0,41.401,7.779,80.981,21.933,117.378l338.068-225.378
			L-2406.468,1189.201z"/>
		<path id="XMLID_130_" style="fill:#4489FE;" d="M-1928.669,1295.61c-54.805-101.203-161.92-169.938-285.094-169.938
			c-56.564,0-109.735,14.51-156.018,39.988l0,0l264.019,176.012l-393.095,262.062c54.806,101.203,161.921,169.938,285.094,169.938
			c56.565,0,109.736-14.51,156.018-39.988l-264.017-176.012L-1928.669,1295.61z"/>
		<path id="XMLID_129_" style="fill:#FFFFFF;" d="M-2369.78,1165.66c-12.78,7.035-25.035,14.904-36.688,23.541l0,0l228.706,152.471
			l-338.068,225.378h-0.001c4.912,12.63,10.582,24.88,16.975,36.684l393.095-262.062L-2369.78,1165.66z"/>
		<path id="XMLID_128_" style="fill:#FFFFFF;" d="M-1911.694,1332.293c-4.912-12.63-10.584-24.88-16.975-36.684v0.001
			l-393.093,262.062l264.017,176.012l0,0c12.779-7.035,25.033-14.905,36.688-23.541h-0.001l-228.704-152.471L-1911.694,1332.293
			L-1911.694,1332.293z"/>
		<path id="XMLID_127_" style="fill:#FFFFFF;" d="M-1902.44,1539.672c-0.045,0-113.324,0-122.322,0c-18,0-27-18-44.999-18
			c-19.884,0-36,16.117-36,36c0,19.882,16.116,36,36,36c17.999,0,26.999-18,44.999-18c8.998,0,109.551,0,109.586,0l0,0
			C-1910.249,1564.006-1905.995,1551.987-1902.44,1539.672L-1902.44,1539.672z"/>
		<path id="XMLID_126_" style="fill:#FFFFFF;" d="M-2357.762,1305.672c-18.001,0-27.001,18-45.001,18c-9,0-109.586,0-109.586,0
			c-4.929,11.665-9.182,23.685-12.736,36c0,0,113.322,0,122.322,0c18,0,27,18,45.001,18c19.88,0,36-16.118,36-36
			C-2321.762,1321.789-2337.882,1305.672-2357.762,1305.672z"/>
	</g>
</g>
<g>
	<g id="XMLID_209_">
		<path id="XMLID_220_" style="fill:#FFFFFF;" d="M-4044.632,1625.104c14.056,0,28.113-14.057,28.113-28.113
			c0-14.056,0-56.226,0-56.226s-126.509,0-140.565,0c-14.055,0-28.113,14.056-28.113,28.113c0,14.057,0,84.339,0,84.339
			s0,28.113,28.113,28.113s140.565,0,140.565,0s0-28.113-28.113-28.113c-28.111,0-98.396,0-98.396,0s-14.057,0-14.057-14.056
			v-28.114c0,0,0,14.057,14.057,14.057C-4139.512,1625.104-4055.37,1625.104-4044.632,1625.104z M-4157.084,1582.935
			c0-7.028,7.029-14.057,14.057-14.057c7.029,0,91.367,0,98.396,0c0,0,0,7.028,0,14.057c0,7.027-7.028,14.056-14.058,14.056
			c-7.026,0-98.395,0-98.395,0S-4157.084,1589.962-4157.084,1582.935z"/>
		<path id="XMLID_217_" style="fill:#FFFFFF;" d="M-3749.444,1596.99c-14.057,0-28.113,14.057-28.113,28.113
			c0,14.058,0,56.227,0,56.227s126.508,0,140.564,0s28.113-14.058,28.113-28.113s0-84.339,0-84.339s0-28.113-28.113-28.113
			c-28.111,0-140.564,0-140.564,0s0,28.113,28.113,28.113s98.395,0,98.395,0s14.057,0,14.057,14.057v28.112
			c0,0,0-14.057-14.057-14.057C-3654.563,1596.99-3738.708,1596.99-3749.444,1596.99z M-3636.993,1639.161
			c0,7.027-7.027,14.056-14.057,14.056c-7.027,0-91.367,0-98.395,0c0,0,0-7.028,0-14.056c0-7.029,7.027-14.058,14.057-14.058
			s98.395,0,98.395,0S-3636.993,1632.132-3636.993,1639.161z"/>
		<path id="XMLID_216_" style="fill:#FFFFFF;" d="M-3819.728,1681.33h28.113v-140.565c0,0-7.027,0-14.057,0
			s-14.057,7.028-14.057,14.056C-3819.728,1561.849-3819.728,1681.33-3819.728,1681.33z"/>
		<path id="XMLID_215_" style="fill:#FFFFFF;" d="M-4002.461,1681.33c0,0,0-98.396,0-112.452c0-14.058,14.055-28.113,28.111-28.113
			v28.113c0,0,0-28.113,28.115-28.113c28.111,0,112.451,0,112.451,0s0,98.396,0,112.452s-14.055,28.113-28.113,28.113v-112.452
			c0,0-91.367,0-98.396,0c-7.029,0-14.058,7.028-14.058,14.057c0,7.027,0,98.396,0,98.396H-4002.461z"/>
		<path id="XMLID_212_" style="fill:#FFFFFF;" d="M-3566.71,1540.765c-14.059,0-28.113,14.056-28.113,28.113
			c0,14.057,0,112.452,0,112.452s126.508,0,140.566,0c14.057,0,28.111-14.058,28.111-28.113s0-112.452,0-112.452
			S-3552.653,1540.765-3566.71,1540.765z M-3454.257,1639.161c0,7.027-7.029,14.056-14.059,14.056c-7.027,0-98.395,0-98.395,0
			s0-63.255,0-70.282c0-7.028,7.029-14.057,14.057-14.057s98.396,0,98.396,0S-3454.257,1632.132-3454.257,1639.161z"/>
		<polygon id="XMLID_211_" style="fill:#FFFFFF;" points="-3412.089,1695.386 -3580.769,1582.935 -3580.769,1554.82 
			-3412.089,1667.272 		"/>
		<path id="XMLID_210_" style="fill:#FFFFFF;" d="M-4199.254,1547.793v-7.028h-168.678c0,0,0,7.027,0,14.056
			s7.027,14.058,14.057,14.058c7.027,0,112.453,0,112.453,0s-89.611,59.74-105.426,70.283
			c-15.813,10.541-21.084,14.056-21.084,35.141v7.028h168.678c0,0,0-7.028,0-14.058c0-7.028-7.027-14.056-14.057-14.056
			c-7.027,0-112.451,0-112.451,0s94.881-63.255,105.424-70.282C-4204.525,1572.392-4199.254,1568.878-4199.254,1547.793z"/>
	</g>
	<g id="XMLID_182_">
		<path id="XMLID_207_" style="fill:#4489FE;" d="M-4298.938,1719.998h-31.471v49.155h-6.053v-49.155h-31.471v-6.056h68.994
			V1719.998z"/>
		<path id="XMLID_205_" style="fill:#4489FE;" d="M-4287.147,1736.568v1.991h63.18v6.055h-63.18v2.072
			c0,9.003,7.57,16.412,16.572,16.412h46.607v6.055h-46.607c-12.508,0-22.626-10.277-22.626-22.626v-9.959
			c0-12.509,10.276-22.626,22.626-22.626h46.607v6.056h-46.607c-4.541,0-8.686,1.832-11.711,4.858
			C-4285.314,1727.884-4287.147,1732.027-4287.147,1736.568z"/>
		<path id="XMLID_203_" style="fill:#4489FE;" d="M-4208.592,1746.527v-9.959c0-12.429,10.199-22.626,22.707-22.626h46.527v6.056
			h-46.527c-9.162,0-16.57,7.488-16.65,16.57v9.959c0,9.002,7.409,16.571,16.49,16.571h46.688v6.055h-46.527
			c-6.213,0-11.949-2.55-16.014-6.612C-4206.042,1758.398-4208.592,1752.741-4208.592,1746.527z"/>
		<path id="XMLID_201_" style="fill:#4489FE;" d="M-4056.024,1713.942v55.211h-6.134v-26.689h-55.53v26.689h-6.055v-55.211h6.055
			v22.466h55.53v-22.466H-4056.024z"/>
		<path id="XMLID_199_" style="fill:#4489FE;" d="M-3989.979,1765.727l-37.999-44.772c-0.958-1.115-2.312-1.595-3.746-1.595
			c-2.469,0-5.019,1.515-5.099,4.304v45.49h-6.056v-46.05l0.081-0.238c0.398-6.054,5.896-9.64,11.232-9.64
			c3.107,0,6.215,1.195,8.287,3.903l38,44.774c0.957,1.115,2.392,1.673,3.746,1.673c2.391,0,4.78-1.593,5.018-4.381v-45.413h6.135
			v45.97c-0.716,5.975-5.814,9.958-11.232,9.958c-1.514,0-3.108-0.318-4.621-1.035
			C-3987.667,1768.036-3988.542,1767.479-3989.979,1765.727z"/>
		<path id="XMLID_196_" style="fill:#4489FE;" d="M-3931.819,1769.153c-12.508,0-22.627-10.118-22.627-22.626v-9.959
			c0-12.429,10.119-22.626,22.627-22.626h40.951c12.507,0,22.704,10.197,22.704,22.626v9.959c0,12.508-10.197,22.626-22.704,22.626
			H-3931.819z M-3948.389,1746.527c0,9.083,7.488,16.571,16.57,16.571h40.951c9.162,0,16.649-7.488,16.649-16.571v-9.959
			c0-9.082-7.487-16.57-16.649-16.57h-40.951c-9.082,0-16.57,7.488-16.57,16.57V1746.527z"/>
		<path id="XMLID_194_" style="fill:#4489FE;" d="M-3848.962,1713.942v32.504c0,4.621,1.832,8.766,4.859,11.713
			c3.029,3.027,7.172,4.939,11.713,4.939h46.527v6.055h-46.527c-6.215,0-11.873-2.55-16.014-6.691
			c-4.064-4.063-6.614-9.721-6.614-16.016v-32.504H-3848.962z"/>
		<path id="XMLID_191_" style="fill:#4489FE;" d="M-3757.581,1769.153c-12.506,0-22.625-10.118-22.625-22.626v-9.959
			c0-12.429,10.119-22.626,22.625-22.626h40.951c12.508,0,22.707,10.197,22.707,22.626v9.959c0,12.508-10.199,22.626-22.707,22.626
			H-3757.581z M-3774.151,1746.527c0,9.083,7.488,16.571,16.57,16.571h40.951c9.162,0,16.65-7.488,16.65-16.571v-9.959
			c0-9.082-7.488-16.57-16.65-16.57h-40.951c-9.082,0-16.57,7.488-16.57,16.57V1746.527z"/>
		<path id="XMLID_189_" style="fill:#4489FE;" d="M-3658.151,1769.153c-12.35,0-22.627-10.118-22.627-22.626v-9.959
			c0-12.349,10.117-22.626,22.627-22.626h33.461v6.056h-33.461c-9.004,0-16.572,7.408-16.572,16.41v10.119
			c0,9.002,7.41,16.571,16.412,16.571h27.086c9.004,0,16.572-7.409,16.572-16.412v-2.311h-25.176v-6.055h31.23v8.206
			c0,12.349-10.119,22.626-22.627,22.626H-3658.151z"/>
		<path id="XMLID_187_" style="fill:#4489FE;" d="M-3595.452,1769.153v-55.211h6.055v55.211H-3595.452z"/>
		<path id="XMLID_185_" style="fill:#4489FE;" d="M-3570.196,1736.568v1.991h63.178v6.055h-63.178v2.072
			c0,9.003,7.568,16.412,16.57,16.412h46.607v6.055h-46.607c-12.508,0-22.625-10.277-22.625-22.626v-9.959
			c0-12.509,10.277-22.626,22.625-22.626h46.607v6.056h-46.607c-4.541,0-8.684,1.832-11.711,4.858
			C-3568.364,1727.884-3570.196,1732.027-3570.196,1736.568z"/>
		<path id="XMLID_183_" style="fill:#4489FE;" d="M-3491.642,1769.153v-6.055h52.66c5.1,0,9.244-4.143,9.244-9.242
			c0-5.179-4.064-9.321-9.244-9.321h-40.391c-8.365,0-15.297-6.772-15.297-15.296c0-8.604,6.771-15.377,15.297-15.457h52.66v6.057
			h-52.66c-5.26,0-9.004,4.221-9.244,9.24c0.398,5.259,4.223,9.401,9.244,9.401h40.391c8.445,0,15.297,6.852,15.297,15.296
			c0,8.524-6.77,15.377-15.297,15.377H-3491.642z"/>
	</g>
	<path id="XMLID_181_" style="fill:#4489FE;" d="M-3772.157,1321.269c-17.318,0-31.355-14.039-31.355-31.356
		c0-17.318,14.037-31.356,31.355-31.356c15.678,0,23.518,15.678,39.195,15.678c7.838,0,106.506,0,106.545,0
		c7.184-24.89,11.043-51.188,11.043-78.392c0-36.061-6.775-70.536-19.104-102.237l-294.462,196.308l199.207,132.804
		c40.336-29.891,72.428-70.273,92.223-117.126c-0.029,0-87.613,0-95.451,0C-3748.64,1305.59-3756.479,1321.269-3772.157,1321.269z"
		/>
	<path id="XMLID_180_" style="fill:#4489FE;" d="M-4065.432,968.968c-40.336,29.892-72.429,70.274-92.225,117.126h0.001
		c0,0,87.611,0,95.45,0c15.679,0,23.518-15.678,39.196-15.678c17.317,0,31.356,14.038,31.356,31.356
		c0,17.317-14.039,31.356-31.356,31.356c-15.679,0-23.518-15.679-39.196-15.679c-7.839,0-106.544,0-106.544,0l0,0
		c-7.183,24.891-11.043,51.189-11.043,78.392c0,36.062,6.775,70.537,19.104,102.239l294.463-196.309L-4065.432,968.968z"/>
	<path id="XMLID_179_" style="fill:#4489FE;" d="M-3649.263,1061.652c-47.736-88.149-141.035-148.02-248.32-148.02
		c-49.27,0-95.582,12.639-135.895,34.831l0,0l229.964,153.309l-342.391,228.26c47.735,88.15,141.035,148.02,248.321,148.02
		c49.269,0,95.582-12.639,135.894-34.831l-229.964-153.309L-3649.263,1061.652z"/>
	<path id="XMLID_178_" style="fill:#FFFFFF;" d="M-4033.477,948.464c-11.131,6.127-21.806,12.981-31.956,20.504h0.001
		l199.206,132.805l-294.463,196.309l0,0c4.278,11,9.217,21.67,14.785,31.951l342.391-228.26L-4033.477,948.464z"/>
	<path id="XMLID_177_" style="fill:#FFFFFF;" d="M-3634.476,1093.604c-4.279-11.001-9.219-21.671-14.785-31.952l-0.002,0.001
		l-342.39,228.26l229.964,153.309l0,0c11.131-6.128,21.805-12.982,31.955-20.505l0,0l-199.207-132.804l294.462-196.308
		L-3634.476,1093.604z"/>
	<path id="XMLID_176_" style="fill:#FFFFFF;" d="M-3626.417,1274.233c-0.039,0-98.707,0-106.545,0
		c-15.678,0-23.518-15.678-39.195-15.678c-17.318,0-31.355,14.038-31.355,31.356c0,17.317,14.037,31.356,31.355,31.356
		c15.678,0,23.518-15.679,39.195-15.679c7.838,0,95.422,0,95.451,0h0.002C-3633.218,1295.43-3629.513,1284.961-3626.417,1274.233
		L-3626.417,1274.233z"/>
	<path id="XMLID_175_" style="fill:#FFFFFF;" d="M-4023.009,1070.416c-15.679,0-23.518,15.678-39.196,15.678
		c-7.839,0-95.45,0-95.45,0c-4.293,10.161-7.997,20.63-11.094,31.356c0,0,98.705,0,106.544,0c15.679,0,23.518,15.679,39.196,15.679
		c17.317,0,31.356-14.039,31.356-31.356C-3991.653,1084.454-4005.692,1070.416-4023.009,1070.416z"/>
</g>
<g>
	<g id="XMLID_331_">
		<path id="XMLID_347_" style="fill:#043A63;" d="M-4227.597-2402.885c14.056,0,28.113-14.057,28.113-28.112
			c0-14.057,0-56.226,0-56.226s-126.508,0-140.565,0c-14.055,0-28.113,14.056-28.113,28.113s0,84.338,0,84.338
			s0,28.114,28.113,28.114c28.113,0,140.565,0,140.565,0s0-28.114-28.113-28.114c-28.111,0-98.395,0-98.395,0
			s-14.057,0-14.057-14.055v-28.114c0,0,0,14.057,14.057,14.057C-4322.477-2402.885-4238.333-2402.885-4227.597-2402.885z
			 M-4340.049-2445.054c0-7.028,7.029-14.057,14.057-14.057c7.029,0,91.367,0,98.395,0c0,0,0,7.029,0,14.057
			c0,7.027-7.028,14.057-14.057,14.057c-7.027,0-98.395,0-98.395,0S-4340.049-2438.027-4340.049-2445.054z"/>
		<path id="XMLID_343_" style="fill:#043A63;" d="M-3932.408-2430.998c-14.057,0-28.114,14.056-28.114,28.112
			c0,14.058,0,56.227,0,56.227s126.509,0,140.565,0c14.056,0,28.112-14.056,28.112-28.114c0-14.055,0-84.338,0-84.338
			s0-28.113-28.112-28.113s-140.565,0-140.565,0s0,28.113,28.114,28.113c28.112,0,98.395,0,98.395,0s14.057,0,14.057,14.057v28.112
			c0,0,0-14.056-14.057-14.056C-3837.528-2430.998-3921.672-2430.998-3932.408-2430.998z M-3819.957-2388.828
			c0,7.027-7.027,14.055-14.057,14.055c-7.028,0-91.367,0-98.395,0c0,0,0-7.028,0-14.055c0-7.029,7.027-14.058,14.056-14.058
			c7.029,0,98.396,0,98.396,0S-3819.957-2395.856-3819.957-2388.828z"/>
		<path id="XMLID_342_" style="fill:#043A63;" d="M-4002.691-2346.659h28.112v-140.565c0,0-7.027,0-14.056,0
			c-7.029,0-14.057,7.028-14.057,14.056S-4002.691-2346.659-4002.691-2346.659z"/>
		<path id="XMLID_341_" style="fill:#043A63;" d="M-4185.426-2346.659c0,0,0-98.396,0-112.452c0-14.057,14.055-28.113,28.112-28.113
			v28.113c0,0,0-28.113,28.114-28.113c28.112,0,112.451,0,112.451,0s0,98.396,0,112.451c0,14.058-14.055,28.114-28.112,28.114
			v-112.452c0,0-91.368,0-98.396,0c-7.029,0-14.057,7.029-14.057,14.057c0,7.027,0,98.396,0,98.396H-4185.426z"/>
		<path id="XMLID_337_" style="fill:#043A63;" d="M-3749.675-2487.224c-14.058,0-28.112,14.056-28.112,28.113s0,112.452,0,112.452
			s126.508,0,140.565,0c14.057,0,28.112-14.056,28.112-28.114c0-14.055,0-112.451,0-112.451S-3735.618-2487.224-3749.675-2487.224z
			 M-3637.222-2388.828c0,7.027-7.029,14.055-14.058,14.055c-7.027,0-98.396,0-98.396,0s0-63.254,0-70.282
			c0-7.028,7.029-14.057,14.057-14.057c7.028,0,98.396,0,98.396,0S-3637.222-2395.856-3637.222-2388.828z"/>
		<polygon id="XMLID_336_" style="fill:#043A63;" points="-3595.053,-2332.602 -3763.732,-2445.054 -3763.732,-2473.167 
			-3595.053,-2360.715 		"/>
		<path id="XMLID_334_" style="fill:#043A63;" d="M-4382.218-2480.196v-7.028h-168.678c0,0,0,7.028,0,14.056
			s7.027,14.057,14.057,14.057c7.027,0,112.453,0,112.453,0s-89.611,59.74-105.425,70.283
			c-15.813,10.541-21.084,14.055-21.084,35.141v7.028h168.678c0,0,0-7.028,0-14.056c0-7.03-7.027-14.058-14.057-14.058
			c-7.028,0-112.452,0-112.452,0s94.882-63.254,105.424-70.282C-4387.489-2455.596-4382.218-2459.111-4382.218-2480.196z"/>
	</g>
	<g id="XMLID_284_">
		<path id="XMLID_324_" style="fill:#7CC0DE;" d="M-4481.903-2307.991h-31.47v49.155h-6.053v-49.155h-31.471v-6.056h68.994
			V-2307.991z"/>
		<path id="XMLID_316_" style="fill:#7CC0DE;" d="M-4470.111-2291.42v1.992h63.179v6.055h-63.179v2.071
			c0,9.003,7.57,16.413,16.572,16.413h46.607v6.054h-46.607c-12.507,0-22.626-10.277-22.626-22.626v-9.959
			c0-12.508,10.277-22.626,22.626-22.626h46.607v6.056h-46.607c-4.542,0-8.685,1.832-11.711,4.86
			C-4468.278-2300.105-4470.111-2295.961-4470.111-2291.42z"/>
		<path id="XMLID_314_" style="fill:#7CC0DE;" d="M-4391.556-2281.461v-9.959c0-12.429,10.198-22.626,22.706-22.626h46.528v6.056
			h-46.528c-9.161,0-16.57,7.488-16.649,16.57v9.959c0,9.002,7.409,16.572,16.49,16.572h46.688v6.054h-46.528
			c-6.212,0-11.949-2.549-16.013-6.612C-4389.006-2269.59-4391.556-2275.248-4391.556-2281.461z"/>
		<path id="XMLID_311_" style="fill:#7CC0DE;" d="M-4238.989-2314.046v55.211h-6.133v-26.688h-55.53v26.688h-6.055v-55.211h6.055
			v22.466h55.53v-22.466H-4238.989z"/>
		<path id="XMLID_309_" style="fill:#7CC0DE;" d="M-4172.943-2262.262l-38-44.772c-0.958-1.115-2.312-1.594-3.746-1.594
			c-2.469,0-5.019,1.514-5.099,4.303v45.49h-6.056v-46.05l0.081-0.238c0.398-6.054,5.896-9.64,11.233-9.64
			c3.106,0,6.214,1.197,8.287,3.903l38,44.775c0.958,1.114,2.392,1.672,3.746,1.672c2.391,0,4.781-1.593,5.019-4.381v-45.412h6.135
			v45.969c-0.716,5.975-5.815,9.959-11.233,9.959c-1.514,0-3.108-0.318-4.621-1.036
			C-4170.631-2259.952-4171.507-2260.509-4172.943-2262.262z"/>
		<path id="XMLID_306_" style="fill:#7CC0DE;" d="M-4114.784-2258.835c-12.507,0-22.626-10.118-22.626-22.626v-9.959
			c0-12.429,10.119-22.626,22.626-22.626h40.951c12.507,0,22.705,10.197,22.705,22.626v9.959c0,12.508-10.197,22.626-22.705,22.626
			H-4114.784z M-4131.354-2281.461c0,9.083,7.489,16.572,16.57,16.572h40.951c9.163,0,16.65-7.489,16.65-16.572v-9.959
			c0-9.082-7.487-16.57-16.65-16.57h-40.951c-9.081,0-16.57,7.488-16.57,16.57V-2281.461z"/>
		<path id="XMLID_301_" style="fill:#7CC0DE;" d="M-4031.927-2314.046v32.505c0,4.621,1.832,8.765,4.86,11.712
			c3.028,3.027,7.171,4.94,11.713,4.94h46.526v6.054h-46.526c-6.215,0-11.873-2.549-16.014-6.691
			c-4.064-4.063-6.614-9.721-6.614-16.015v-32.505H-4031.927z"/>
		<path id="XMLID_297_" style="fill:#7CC0DE;" d="M-3940.545-2258.835c-12.507,0-22.626-10.118-22.626-22.626v-9.959
			c0-12.429,10.119-22.626,22.626-22.626h40.951c12.508,0,22.706,10.197,22.706,22.626v9.959c0,12.508-10.198,22.626-22.706,22.626
			H-3940.545z M-3957.116-2281.461c0,9.083,7.488,16.572,16.571,16.572h40.951c9.161,0,16.649-7.489,16.649-16.572v-9.959
			c0-9.082-7.488-16.57-16.649-16.57h-40.951c-9.083,0-16.571,7.488-16.571,16.57V-2281.461z"/>
		<path id="XMLID_292_" style="fill:#7CC0DE;" d="M-3841.116-2258.835c-12.35,0-22.626-10.118-22.626-22.626v-9.959
			c0-12.349,10.117-22.626,22.626-22.626h33.461v6.056h-33.461c-9.003,0-16.571,7.408-16.571,16.41v10.119
			c0,9.002,7.41,16.572,16.411,16.572h27.087c9.003,0,16.571-7.41,16.571-16.413v-2.311h-25.175v-6.055h31.229v8.206
			c0,12.349-10.119,22.626-22.626,22.626H-3841.116z"/>
		<path id="XMLID_289_" style="fill:#7CC0DE;" d="M-3778.417-2258.835v-55.211h6.055v55.211H-3778.417z"/>
		<path id="XMLID_287_" style="fill:#7CC0DE;" d="M-3753.161-2291.42v1.992h63.178v6.055h-63.178v2.071
			c0,9.003,7.569,16.413,16.571,16.413h46.606v6.054h-46.606c-12.509,0-22.626-10.277-22.626-22.626v-9.959
			c0-12.508,10.277-22.626,22.626-22.626h46.606v6.056h-46.606c-4.542,0-8.685,1.832-11.711,4.86
			C-3751.328-2300.105-3753.161-2295.961-3753.161-2291.42z"/>
		<path id="XMLID_285_" style="fill:#7CC0DE;" d="M-3674.606-2258.835v-6.054h52.661c5.099,0,9.243-4.143,9.243-9.243
			c0-5.179-4.064-9.321-9.243-9.321h-40.392c-8.365,0-15.297-6.772-15.297-15.296c0-8.604,6.772-15.377,15.297-15.456h52.661v6.056
			h-52.661c-5.259,0-9.003,4.222-9.243,9.24c0.398,5.259,4.223,9.401,9.243,9.401h40.392c8.444,0,15.297,6.852,15.297,15.296
			c0,8.525-6.771,15.377-15.297,15.377H-3674.606z"/>
	</g>
	<path id="XMLID_283_" style="fill:#7CC0DE;" d="M-3955.121-2706.72c-17.318,0-31.356-14.039-31.356-31.356
		s14.038-31.356,31.356-31.356c15.678,0,23.518,15.678,39.195,15.678c7.838,0,106.506,0,106.545,0
		c7.183-24.89,11.043-51.188,11.043-78.392c0-36.061-6.775-70.536-19.104-102.238l-294.462,196.308l199.206,132.804
		c40.336-29.891,72.429-70.274,92.224-117.126c-0.03,0-87.613,0-95.451,0C-3931.604-2722.398-3939.443-2706.72-3955.121-2706.72z"/>
	<path id="XMLID_282_" style="fill:#7CC0DE;" d="M-4248.397-3059.021c-40.336,29.891-72.428,70.274-92.224,117.126h0
		c0,0,87.611,0,95.451,0c15.678,0,23.517-15.678,39.196-15.678c17.317,0,31.357,14.04,31.357,31.356
		c0,17.318-14.04,31.357-31.357,31.357c-15.679,0-23.518-15.678-39.196-15.678c-7.839,0-106.544,0-106.544,0l0,0
		c-7.183,24.89-11.043,51.188-11.043,78.391c0,36.062,6.775,70.537,19.104,102.239l294.463-196.309L-4248.397-3059.021z"/>
	<path id="XMLID_281_" style="fill:#7CC0DE;" d="M-3832.227-2966.336c-47.736-88.149-141.035-148.019-248.321-148.019
		c-49.269,0-95.582,12.639-135.894,34.831h0l229.963,153.308l-342.391,228.26c47.736,88.15,141.035,148.019,248.321,148.019
		c49.269,0,95.582-12.638,135.894-34.831l-229.963-153.309L-3832.227-2966.336z"/>
	<path id="XMLID_280_" style="fill:#FFFFFF;" d="M-4216.441-3079.524c-11.132,6.127-21.806,12.981-31.957,20.504h0l199.207,132.804
		l-294.463,196.309l0,0c4.278,11,9.217,21.67,14.785,31.951l342.391-228.26L-4216.441-3079.524z"/>
	<path id="XMLID_279_" style="fill:#FFFFFF;" d="M-3817.44-2934.385c-4.279-11.001-9.219-21.671-14.785-31.952l-0.001,0
		l-342.39,228.26l229.963,153.309l0,0c11.131-6.127,21.805-12.982,31.955-20.505l0,0l-199.206-132.804L-3817.44-2934.385
		L-3817.44-2934.385z"/>
	<path id="XMLID_278_" style="fill:#FFFFFF;" d="M-3809.381-2753.755c-0.039,0-98.707,0-106.545,0
		c-15.678,0-23.518-15.678-39.195-15.678c-17.318,0-31.356,14.039-31.356,31.356s14.038,31.356,31.356,31.356
		c15.678,0,23.518-15.678,39.195-15.678c7.838,0,95.421,0,95.451,0h0.001C-3816.182-2732.559-3812.477-2743.028-3809.381-2753.755
		L-3809.381-2753.755z"/>
	<path id="XMLID_277_" style="fill:#FFFFFF;" d="M-4205.974-2957.573c-15.679,0-23.518,15.678-39.196,15.678
		c-7.839,0-95.451,0-95.451,0c-4.293,10.161-7.998,20.63-11.094,31.357c0,0,98.705,0,106.544,0
		c15.678,0,23.517,15.678,39.196,15.678c17.317,0,31.357-14.039,31.357-31.357
		C-4174.617-2943.533-4188.657-2957.573-4205.974-2957.573z"/>
</g>
<g>
	<g id="XMLID_231_">
		<g id="XMLID_262_">
			<path id="XMLID_274_" style="fill:#043A63;" d="M-1651.116-2670.489c16.138,0,32.276-16.139,32.276-32.276s0-64.552,0-64.552
				s-145.242,0-161.381,0c-16.137,0-32.277,16.137-32.277,32.276c0,16.138,0,96.828,0,96.828s0,32.276,32.277,32.276
				c32.275,0,161.381,0,161.381,0s0-32.276-32.276-32.276c-32.274,0-112.966,0-112.966,0s-16.139,0-16.139-16.137v-32.278
				c0,0,0,16.139,16.139,16.139C-1760.047-2670.489-1663.443-2670.489-1651.116-2670.489z M-1780.221-2718.902
				c0-8.069,8.068-16.138,16.139-16.138c8.068,0,104.896,0,112.966,0c0,0,0,8.069,0,16.138c0,8.068-8.069,16.137-16.14,16.137
				c-8.066,0-112.965,0-112.965,0S-1780.221-2710.834-1780.221-2718.902z"/>
			<path id="XMLID_271_" style="fill:#043A63;" d="M-1312.215-2702.765c-16.139,0-32.277,16.137-32.277,32.276
				c0,16.139,0,64.553,0,64.553s145.241,0,161.381,0c16.137,0,32.275-16.139,32.275-32.276c0-16.137,0-96.828,0-96.828
				s0-32.276-32.275-32.276s-161.381,0-161.381,0s0,32.276,32.277,32.276c32.275,0,112.964,0,112.964,0s16.14,0,16.14,16.138v32.274
				c0,0,0-16.137-16.14-16.137C-1203.285-2702.765-1299.889-2702.765-1312.215-2702.765z M-1183.111-2654.35
				c0,8.068-8.068,16.137-16.14,16.137c-8.067,0-104.896,0-112.964,0c0,0,0-8.069,0-16.137c0-8.07,8.068-16.139,16.137-16.139
				c8.07,0,112.967,0,112.967,0S-1183.111-2662.419-1183.111-2654.35z"/>
			<path id="XMLID_270_" style="fill:#043A63;" d="M-1392.906-2605.936h32.274v-161.38c0,0-8.067,0-16.136,0
				c-8.07,0-16.139,8.069-16.139,16.137C-1392.906-2743.11-1392.906-2605.936-1392.906-2605.936z"/>
			<path id="XMLID_269_" style="fill:#043A63;" d="M-1602.701-2605.936c0,0,0-112.967,0-129.104
				c0-16.139,16.137-32.276,32.275-32.276v32.276c0,0,0-32.276,32.277-32.276c32.275,0,129.104,0,129.104,0s0,112.967,0,129.104
				c0,16.138-16.137,32.276-32.275,32.276v-129.104c0,0-104.898,0-112.967,0c-8.07,0-16.139,8.069-16.139,16.138
				c0,8.068,0,112.966,0,112.966H-1602.701z"/>
			<path id="XMLID_265_" style="fill:#043A63;" d="M-1102.422-2767.316c-16.139,0-32.276,16.137-32.276,32.276
				c0,16.138,0,129.104,0,129.104s145.243,0,161.381,0c16.14,0,32.276-16.139,32.276-32.276c0-16.137,0-129.104,0-129.104
				S-1086.283-2767.316-1102.422-2767.316z M-973.317-2654.35c0,8.068-8.069,16.137-16.138,16.137s-112.967,0-112.967,0
				s0-72.622,0-80.689c0-8.069,8.069-16.138,16.139-16.138c8.067,0,112.966,0,112.966,0S-973.317-2662.419-973.317-2654.35z"/>
			<polygon id="XMLID_264_" style="fill:#043A63;" points="-924.902,-2589.798 -1118.561,-2718.902 -1118.561,-2751.179 
				-924.902,-2622.075 			"/>
			<path id="XMLID_263_" style="fill:#043A63;" d="M-1828.635-2759.248v-8.069h-193.658c0,0,0,8.068,0,16.137
				c0,8.069,8.068,16.139,16.139,16.139c8.068,0,129.105,0,129.105,0s-102.88,68.586-121.037,80.69
				c-18.154,12.102-24.207,16.137-24.207,40.344v8.069h193.658c0,0,0-8.069,0-16.139s-8.068-16.138-16.139-16.138
				c-8.068,0-129.104,0-129.104,0s108.933-72.622,121.036-80.689C-1834.688-2731.006-1828.635-2735.04-1828.635-2759.248z"/>
		</g>
		<g id="XMLID_232_">
			<path id="XMLID_259_" style="fill:#7CC0DE;" d="M-1943.082-2561.542h-36.13v56.434h-6.949v-56.434h-36.132v-6.953h79.211
				V-2561.542z"/>
			<path id="XMLID_256_" style="fill:#7CC0DE;" d="M-1929.543-2542.518v2.286h72.535v6.952h-72.535v2.378
				c0,10.337,8.689,18.843,19.025,18.843h53.51v6.951h-53.51c-14.359,0-25.977-11.799-25.977-25.976v-11.434
				c0-14.361,11.799-25.977,25.977-25.977h53.51v6.953h-53.51c-5.215,0-9.971,2.102-13.445,5.578
				C-1927.439-2552.489-1929.543-2547.731-1929.543-2542.518z"/>
			<path id="XMLID_254_" style="fill:#7CC0DE;" d="M-1839.355-2531.084v-11.434c0-14.27,11.707-25.977,26.068-25.977h53.418v6.953
				h-53.418c-10.518,0-19.024,8.597-19.115,19.024v11.434c0,10.336,8.506,19.025,18.932,19.025h53.602v6.951h-53.418
				c-7.133,0-13.719-2.927-18.385-7.591C-1836.428-2517.456-1839.355-2523.949-1839.355-2531.084z"/>
			<path id="XMLID_252_" style="fill:#7CC0DE;" d="M-1664.195-2568.495v63.387h-7.043v-30.64h-63.752v30.64h-6.953v-63.387h6.953
				v25.793h63.752v-25.793H-1664.195z"/>
			<path id="XMLID_250_" style="fill:#7CC0DE;" d="M-1588.369-2509.042l-43.627-51.403c-1.1-1.28-2.654-1.829-4.301-1.829
				c-2.835,0-5.762,1.738-5.854,4.94v52.226h-6.953v-52.868l0.094-0.274c0.457-6.951,6.769-11.067,12.896-11.067
				c3.566,0,7.135,1.373,9.514,4.481l43.627,51.405c1.1,1.28,2.746,1.92,4.301,1.92c2.744,0,5.488-1.828,5.762-5.029v-52.138h7.043
				v52.777c-0.822,6.859-6.676,11.432-12.897,11.432c-1.737,0-3.567-0.364-5.304-1.188
				C-1585.715-2506.389-1586.721-2507.029-1588.369-2509.042z"/>
			<path id="XMLID_247_" style="fill:#7CC0DE;" d="M-1521.599-2505.108c-14.358,0-25.976-11.616-25.976-25.976v-11.434
				c0-14.27,11.617-25.977,25.976-25.977h47.017c14.359,0,26.066,11.707,26.066,25.977v11.434c0,14.36-11.707,25.976-26.066,25.976
				H-1521.599z M-1540.621-2531.084c0,10.427,8.598,19.025,19.022,19.025h47.017c10.52,0,19.115-8.598,19.115-19.025v-11.434
				c0-10.427-8.596-19.024-19.115-19.024h-47.017c-10.425,0-19.022,8.597-19.022,19.024V-2531.084z"/>
			<path id="XMLID_245_" style="fill:#7CC0DE;" d="M-1426.471-2568.495v37.318c0,5.305,2.104,10.063,5.58,13.446
				c3.476,3.477,8.232,5.671,13.447,5.671h53.416v6.951h-53.416c-7.135,0-13.631-2.927-18.385-7.682
				c-4.666-4.666-7.594-11.16-7.594-18.387v-37.318H-1426.471z"/>
			<path id="XMLID_241_" style="fill:#7CC0DE;" d="M-1321.557-2505.108c-14.359,0-25.977-11.616-25.977-25.976v-11.434
				c0-14.27,11.617-25.977,25.977-25.977h47.016c14.359,0,26.068,11.707,26.068,25.977v11.434c0,14.36-11.709,25.976-26.068,25.976
				H-1321.557z M-1340.582-2531.084c0,10.427,8.598,19.025,19.025,19.025h47.016c10.518,0,19.115-8.598,19.115-19.025v-11.434
				c0-10.427-8.598-19.024-19.115-19.024h-47.016c-10.428,0-19.025,8.597-19.025,19.024V-2531.084z"/>
			<path id="XMLID_239_" style="fill:#7CC0DE;" d="M-1207.404-2505.108c-14.179,0-25.978-11.616-25.978-25.976v-11.434
				c0-14.177,11.616-25.977,25.978-25.977h38.416v6.953h-38.416c-10.336,0-19.025,8.506-19.025,18.84v11.618
				c0,10.336,8.508,19.025,18.842,19.025h31.098c10.336,0,19.025-8.505,19.025-18.843v-2.651h-28.902v-6.951h35.853v9.42
				c0,14.177-11.617,25.976-25.976,25.976H-1207.404z"/>
			<path id="XMLID_237_" style="fill:#7CC0DE;" d="M-1135.42-2505.108v-63.387h6.951v63.387H-1135.42z"/>
			<path id="XMLID_235_" style="fill:#7CC0DE;" d="M-1106.424-2542.518v2.286h72.533v6.952h-72.533v2.378
				c0,10.337,8.689,18.843,19.025,18.843h53.508v6.951h-53.508c-14.361,0-25.977-11.799-25.977-25.976v-11.434
				c0-14.361,11.799-25.977,25.977-25.977h53.508v6.953h-53.508c-5.216,0-9.971,2.102-13.445,5.578
				C-1104.32-2552.489-1106.424-2547.731-1106.424-2542.518z"/>
			<path id="XMLID_233_" style="fill:#7CC0DE;" d="M-1016.236-2505.108v-6.951h60.459c5.854,0,10.61-4.755,10.61-10.61
				c0-5.946-4.665-10.702-10.61-10.702h-46.373c-9.604,0-17.563-7.774-17.563-17.56c0-9.879,7.775-17.654,17.563-17.746h60.459
				v6.952h-60.459c-6.037,0-10.336,4.847-10.611,10.61c0.457,6.037,4.847,10.792,10.611,10.792h46.373
				c9.694,0,17.562,7.867,17.562,17.562c0,9.788-7.772,17.653-17.562,17.653H-1016.236z"/>
		</g>
	</g>
	<g id="XMLID_223_">
		<path id="XMLID_230_" style="fill:#7CC0DE;" d="M-2262.198-2542.316c-19.884,0-36-16.119-36-36c0-19.883,16.116-36,36-36
			c17.999,0,26.999,18,44.999,18c8.998,0,122.277,0,122.322,0c8.246-28.577,12.678-58.769,12.678-90
			c0-41.401-7.778-80.982-21.932-117.378l-338.067,225.378l228.704,152.47c46.31-34.318,83.154-80.681,105.881-134.47
			c-0.035,0-100.588,0-109.586,0C-2235.199-2560.316-2244.199-2542.316-2262.198-2542.316z"/>
		<path id="XMLID_229_" style="fill:#7CC0DE;" d="M-2598.904-2946.788c-46.31,34.317-83.154,80.681-105.881,134.471l0,0
			c0,0,100.586,0,109.586,0c18,0,27-18,45.001-18c19.88,0,36,16.117,36,36c0,19.881-16.12,36-36,36c-18.001,0-27.001-18-45.001-18
			c-9,0-122.322,0-122.322,0l0,0c-8.246,28.575-12.678,58.769-12.678,90c0,41.401,7.779,80.981,21.933,117.377l338.068-225.377
			L-2598.904-2946.788z"/>
		<path id="XMLID_228_" style="fill:#7CC0DE;" d="M-2121.105-2840.378c-54.805-101.203-161.92-169.938-285.094-169.938
			c-56.564,0-109.735,14.509-156.018,39.988l0,0l264.019,176.012l-393.095,262.062c54.806,101.202,161.921,169.938,285.094,169.938
			c56.565,0,109.736-14.51,156.018-39.989l-264.017-176.011L-2121.105-2840.378z"/>
		<path id="XMLID_227_" style="fill:#FFFFFF;" d="M-2562.217-2970.329c-12.78,7.035-25.035,14.905-36.688,23.541l0,0
			l228.706,152.471l-338.068,225.377h-0.001c4.912,12.63,10.582,24.88,16.975,36.685l393.095-262.062L-2562.217-2970.329z"/>
		<path id="XMLID_226_" style="fill:#FFFFFF;" d="M-2104.131-2803.695c-4.912-12.63-10.584-24.88-16.975-36.684v0l-393.093,262.062
			l264.017,176.011l0,0c12.779-7.035,25.033-14.905,36.688-23.541h-0.001l-228.704-152.47L-2104.131-2803.695L-2104.131-2803.695z"
			/>
		<path id="XMLID_225_" style="fill:#FFFFFF;" d="M-2094.877-2596.316c-0.045,0-113.324,0-122.322,0c-18,0-27-18-44.999-18
			c-19.884,0-36,16.117-36,36c0,19.881,16.116,36,36,36c17.999,0,26.999-18,44.999-18c8.998,0,109.551,0,109.586,0l0,0
			C-2102.686-2571.982-2098.432-2584.001-2094.877-2596.316L-2094.877-2596.316z"/>
		<path id="XMLID_224_" style="fill:#FFFFFF;" d="M-2550.198-2830.316c-18.001,0-27.001,18-45.001,18c-9,0-109.586,0-109.586,0
			c-4.929,11.665-9.182,23.684-12.736,36c0,0,113.322,0,122.322,0c18,0,27,18,45.001,18c19.88,0,36-16.119,36-36
			C-2514.198-2814.199-2530.318-2830.316-2550.198-2830.316z"/>
	</g>
</g>
<g id="XMLID_355_">
	<path id="XMLID_362_" style="fill:#4489FE;" d="M361.89,361.96c-14.483,0-26.223-11.74-26.223-26.222
		c0-14.483,11.739-26.223,26.223-26.223c13.11,0,19.665,13.111,32.777,13.111c6.554,0,89.065,0,89.099,0
		c6.006-20.814,9.234-42.807,9.234-65.556c0-30.156-5.666-58.987-15.975-85.498L230.778,335.738l166.587,111.059
		c33.732-24.997,60.569-58.768,77.124-97.948c-0.027,0-73.269,0-79.822,0C381.555,348.849,375,361.96,361.89,361.96z"/>
	<path id="XMLID_361_" style="fill:#4489FE;" d="M116.635,67.346c-33.732,24.997-60.569,58.768-77.124,97.948l0,0
		c0,0,73.267,0,79.822,0c13.111,0,19.667-13.111,32.778-13.111c14.48,0,26.223,11.74,26.223,26.222
		c0,14.482-11.742,26.222-26.223,26.222c-13.111,0-19.667-13.111-32.778-13.111c-6.556,0-89.099,0-89.099,0l0,0
		C24.229,212.33,21,234.322,21,257.071c0,30.156,5.667,58.986,15.976,85.497l246.248-164.164L116.635,67.346z"/>
	<path id="XMLID_360_" style="fill:#4489FE;" d="M464.66,144.854C424.741,71.138,346.719,21.071,257,21.071
		c-41.201,0-79.931,10.569-113.643,29.127l0,0l192.31,128.207L49.339,369.289C89.259,443.005,167.282,493.071,257,493.071
		c41.202,0,79.931-10.569,113.643-29.128L178.334,335.738L464.66,144.854z"/>
	<path id="XMLID_359_" style="fill:#FFFFFF;" d="M143.357,50.198c-9.31,5.125-18.235,10.856-26.723,17.147l0,0l166.589,111.059
		L36.976,342.568h-0.001c3.578,9.199,7.708,18.123,12.364,26.721l286.328-190.884L143.357,50.198z"/>
	<path id="XMLID_358_" style="fill:#FFFFFF;" d="M477.025,171.573c-3.578-9.2-7.71-18.123-12.365-26.72v0L178.334,335.738
		l192.309,128.205l0,0c9.309-5.123,18.233-10.855,26.724-17.146h-0.001L230.778,335.738L477.025,171.573L477.025,171.573z"/>
	<path id="XMLID_357_" style="fill:#FFFFFF;" d="M483.766,322.627c-0.033,0-82.545,0-89.099,0
		c-13.112,0-19.667-13.111-32.777-13.111c-14.483,0-26.223,11.739-26.223,26.223c0,14.481,11.739,26.222,26.223,26.222
		c13.11,0,19.665-13.111,32.777-13.111c6.554,0,79.795,0,79.822,0l0,0C478.078,340.352,481.176,331.597,483.766,322.627
		L483.766,322.627z"/>
	<path id="XMLID_356_" style="fill:#FFFFFF;" d="M152.111,152.183c-13.111,0-19.667,13.111-32.778,13.111
		c-6.556,0-79.822,0-79.822,0c-3.59,8.497-6.688,17.251-9.276,26.222c0,0,82.543,0,89.099,0c13.111,0,19.667,13.111,32.778,13.111
		c14.48,0,26.223-11.74,26.223-26.222C178.334,163.922,166.592,152.183,152.111,152.183z"/>
</g>
</svg>
